<svg width="156" height="147" viewBox="0 0 156 147" fill="none" xmlns="http://www.w3.org/2000/svg">
<g opacity="0.52">
<path opacity="0.5" fill-rule="evenodd" clip-rule="evenodd" d="M77.9997 75.7852C30.1629 75.7852 42.5197 14.1107 77.9997 0C113.479 14.1107 125.837 75.7852 77.9997 75.7852Z" fill="#B481EB"/>
<path opacity="0.5" fill-rule="evenodd" clip-rule="evenodd" d="M77.9997 75.7852C41.3552 46.3636 92.2522 6.71823 128.911 17.7303C146.61 50.3611 114.645 105.207 77.9997 75.7852Z" fill="#AB81EB"/>
<path opacity="0.24" fill-rule="evenodd" clip-rule="evenodd" d="M78 75.7847C69.6934 30.7074 135.316 31.6425 156 62.625C147.638 98.5076 86.3074 120.861 78 75.7847Z" fill="#A280EC"/>
<path opacity="0.27" fill-rule="evenodd" clip-rule="evenodd" d="M77.9999 75.7849C101.918 36.1453 151.56 77.2214 146.592 113.678C116.081 136.022 54.0822 115.424 77.9999 75.7849Z" fill="#9980EC"/>
<path opacity="0.33" fill-rule="evenodd" clip-rule="evenodd" d="M77.9996 75.7855C122.952 60.1306 133.385 122.129 105.088 147C66.7054 145.351 33.0484 91.4404 77.9996 75.7855Z" fill="#9080EC"/>
<path opacity="0.34" fill-rule="evenodd" clip-rule="evenodd" d="M77.999 75.7855C122.951 91.4412 89.294 145.351 50.9094 147C22.6145 122.129 33.047 60.1306 77.999 75.7855Z" fill="#867FEC"/>
<path opacity="0.5" fill-rule="evenodd" clip-rule="evenodd" d="M78.0008 75.7849C101.918 115.425 39.9198 136.022 9.40833 113.677C4.44128 77.2215 54.0824 36.1453 78.0008 75.7849Z" fill="#7D7FED"/>
<path opacity="0.5" fill-rule="evenodd" clip-rule="evenodd" d="M78.0002 75.7848C69.6928 120.861 8.36251 98.5085 0 62.6244C20.6846 31.6426 86.3068 30.7075 78.0002 75.7848Z" fill="#747EED"/>
<path opacity="0.5" fill-rule="evenodd" clip-rule="evenodd" d="M77.9995 75.7853C41.3542 105.207 9.38893 50.3619 27.0889 17.7303C63.7471 6.71825 114.644 46.3629 77.9995 75.7853Z" fill="#6B7EED"/>
</g>
</svg>
