<svg width="22" height="22" viewBox="0 0 22 22" fill="none" xmlns="http://www.w3.org/2000/svg">
<path fill-rule="evenodd" clip-rule="evenodd" d="M16.0415 10.0833C14.0973 10.0833 13.1247 10.0833 12.5206 9.47924C11.9165 8.87516 11.9165 7.90258 11.9165 5.95833C11.9165 4.01408 11.9165 3.04149 12.5206 2.43741C13.1247 1.83333 14.0973 1.83333 16.0415 1.83333C17.9858 1.83333 18.9583 1.83333 19.5624 2.43741C20.1665 3.04149 20.1665 4.01408 20.1665 5.95833C20.1665 7.90258 20.1665 8.87516 19.5624 9.47924C18.9583 10.0833 17.9858 10.0833 16.0415 10.0833ZM14.7078 7.53133C14.0065 6.91716 13.2915 6.09766 13.2915 5.31483C13.2915 3.68958 14.804 3.08274 16.0415 4.33858C17.279 3.08274 18.7915 3.68958 18.7915 5.31483C18.7915 6.09766 18.0765 6.91624 17.3753 7.53133C16.8289 8.01074 16.5558 8.25 16.0415 8.25C15.5282 8.25 15.2541 8.01074 14.7078 7.53133Z" fill="url(#paint0_linear_66_6901)"/>
<path d="M20.0788 15.0709C20.1549 14.1322 20.165 12.9864 20.1668 11.6398C20.1668 11.4701 20.0994 11.3074 19.9794 11.1874C19.8594 11.0674 19.6967 11 19.527 11C19.3573 11 19.1946 11.0674 19.0746 11.1874C18.9546 11.3074 18.8872 11.4701 18.8872 11.6398C18.8862 12.9937 18.8762 14.0763 18.8037 14.9673C18.7267 15.9133 18.5819 16.5834 18.339 17.094L15.9254 14.9215C15.4952 14.534 14.9462 14.3039 14.3682 14.2689C13.7902 14.234 13.2175 14.3962 12.7437 14.729L12.4897 14.9087C12.1612 15.1397 11.7617 15.2474 11.3616 15.2126C10.9614 15.1779 10.5864 15.0031 10.3026 14.7189L6.64508 11.0614C6.29315 10.7096 5.82069 10.5048 5.32338 10.4883C4.82607 10.4717 4.34106 10.6448 3.96658 10.9725L3.11316 11.7187V11C3.11316 8.97233 3.11316 7.51574 3.26258 6.40749C3.40925 5.31666 3.68791 4.65941 4.17375 4.17358C4.65958 3.68774 5.31683 3.40999 6.40766 3.26333C7.39675 3.13041 8.66083 3.11574 10.3612 3.11391C10.525 3.10514 10.6792 3.03391 10.792 2.91488C10.9048 2.79585 10.9677 2.63808 10.9677 2.47408C10.9677 2.31007 10.9048 2.15231 10.792 2.03328C10.6792 1.91425 10.525 1.84301 10.3612 1.83424C8.68466 1.83608 7.30875 1.85258 6.23716 1.99649C5.00608 2.16149 4.0335 2.50708 3.27083 3.27066C2.50816 4.03424 2.16166 5.00591 1.99666 6.23699C1.8335 7.43966 1.8335 8.98333 1.8335 10.9514V11C1.8335 11.4498 1.83411 11.8763 1.83533 12.2797C1.84175 13.8646 1.87566 15.1406 2.05808 16.1663C2.24416 17.2113 2.59341 18.0528 3.26991 18.7293C4.03258 19.4929 5.00516 19.8385 6.23625 20.0035C7.43983 20.1667 8.9835 20.1667 10.9516 20.1667H11.0487C13.0177 20.1667 14.5596 20.1667 15.7641 20.0044C16.9961 19.8394 17.9677 19.4938 18.7304 18.7302C18.9963 18.4642 19.2217 18.1606 19.3996 17.8292C19.8075 17.0729 19.9908 16.1608 20.0788 15.0709Z" fill="url(#paint1_linear_66_6901)"/>
<defs>
<linearGradient id="paint0_linear_66_6901" x1="16.0415" y1="1.83333" x2="16.0415" y2="10.0833" gradientUnits="userSpaceOnUse">
<stop stop-color="#68666E"/>
<stop offset="1" stop-color="#6D5D99"/>
</linearGradient>
<linearGradient id="paint1_linear_66_6901" x1="11.0002" y1="1.83424" x2="11.0002" y2="20.1667" gradientUnits="userSpaceOnUse">
<stop stop-color="#686868"/>
<stop offset="1" stop-color="#7C4CFF"/>
</linearGradient>
</defs>
</svg>
