<svg width="53" height="53" viewBox="0 0 53 53" fill="none" xmlns="http://www.w3.org/2000/svg">
<path d="M13.25 41.9583V27.2729C11.3361 26.7576 9.75347 25.7271 8.50208 24.1812C7.25069 22.6354 6.625 20.8319 6.625 18.7708C6.625 16.8201 7.18665 15.0903 8.30996 13.5812C9.43326 12.0722 10.8775 11.0233 12.6427 10.4344C13.4892 8.6677 14.7502 7.23228 16.4256 6.12811C18.101 5.02395 19.9869 4.47186 22.0833 4.47186C23.3715 4.47186 24.5773 4.6927 25.7006 5.13436C26.8239 5.57603 27.8449 6.16492 28.7635 6.90103C29.1316 6.82742 29.4812 6.76264 29.8125 6.7067C30.1437 6.65075 30.5118 6.62352 30.9167 6.62499C33.3458 6.62499 35.4253 7.48992 37.1552 9.21978C38.8851 10.9496 39.75 13.0292 39.75 15.4583C39.75 16.268 39.6492 17.041 39.4475 17.7771C39.2458 18.5132 38.9417 19.2125 38.5354 19.875H41.9583C43.1729 19.875 44.213 20.3078 45.0787 21.1735C45.9444 22.0392 46.3765 23.0785 46.375 24.2917V37.5417C46.375 38.7562 45.9429 39.7964 45.0787 40.662C44.2145 41.5277 43.1744 41.9598 41.9583 41.9583H37.5417C36.7687 42.7312 36.1342 43.6609 35.6381 44.7474C35.1419 45.8339 34.3042 46.3765 33.125 46.375H17.6667C16.4521 46.375 15.4127 45.9429 14.5485 45.0787C13.6843 44.2145 13.2515 43.1744 13.25 41.9583ZM11.0417 18.7708C11.0417 19.9854 11.4745 21.0255 12.3402 21.8912C13.2058 22.7569 14.2452 23.189 15.4583 23.1875C16.6361 23.1875 17.6394 22.801 18.4683 22.0281C19.2972 21.2552 20.1525 20.3903 21.0344 19.4333C21.9545 18.4396 22.9946 17.5283 24.1547 16.6994C25.3149 15.8705 26.8327 15.4568 28.7083 15.4583H35.3333C35.3333 14.2437 34.9012 13.2043 34.037 12.3402C33.1728 11.476 32.1327 11.0431 30.9167 11.0417C29.9965 11.0417 29.2236 11.1616 28.5979 11.4016L27.6594 11.7594L25.9479 10.3239C25.5431 9.9927 25.0182 9.67028 24.3734 9.3567C23.7285 9.04311 22.9652 8.88706 22.0833 8.88853C20.9056 8.88853 19.8286 9.20138 18.8525 9.82707C17.8765 10.4528 17.1315 11.2993 16.6177 12.3667L15.8448 14.0229L14.0781 14.6302C13.158 14.9246 12.4219 15.4495 11.8698 16.2047C11.3177 16.96 11.0417 17.8153 11.0417 18.7708ZM37.5417 37.5417H41.9583V24.2917H37.5417V37.5417Z" fill="#A09CAB"/>
</svg>
