<?xml version="1.0" encoding="UTF-8"?>
<svg version="1.1" xmlns="http://www.w3.org/2000/svg" width="232" height="63">
<path d="M0 0 C21.33333333 0 21.33333333 0 27.0625 4.6875 C28.46478971 8.14648128 28.80597293 11.380318 28 15 C25.5 17.875 25.5 17.875 23 20 C23 22.95836935 24.80244845 24.44097171 26.50390625 26.73046875 C28.89715309 30.36095547 30.6471243 34.29116296 32.47265625 38.23046875 C34.01223227 41.02218077 35.64322646 42.87636965 38 45 C36.60316918 44.96652475 35.20719363 44.89668216 33.8125 44.8125 C33.03519531 44.77769531 32.25789063 44.74289063 31.45703125 44.70703125 C27.82894622 43.6630195 26.33908916 41.93364026 24 39 C23.07847624 36.36349546 22.38098578 34.01346239 21.8125 31.3125 C20.85384619 26.20060233 20.85384619 26.20060233 18 22 C16.0056645 21.42837518 14.0092321 21.05224469 11.97265625 20.66015625 C10 20 10 20 7 17 C6.67 26.24 6.34 35.48 6 45 C4.02 45 2.04 45 0 45 C0 30.15 0 15.3 0 0 Z M6 2 C5.65605453 7.73242442 5.61130706 12.09223781 9 17 C11.7310996 19.22800231 13.08886677 20.0433873 16.625 19.875 C19.25106193 18.9075035 20.27936322 18.18238959 22 16 C22.68070106 12.6021672 22.56409169 9.41247547 22 6 C20.34693621 3.1094812 20.34693621 3.1094812 17 2 C13.30668531 1.6991401 9.69549002 1.76700939 6 2 Z " fill="#8C8C8C" transform="translate(133,2)"/>
<path d="M0 0 C8.58 0 17.16 0 26 0 C26 1.65 26 3.3 26 5 C25.113125 4.525625 24.22625 4.05125 23.3125 3.5625 C17.84308334 1.1668051 11.88433663 1.25661017 6 1 C6.11443603 3.0839403 6.24195547 5.16716493 6.375 7.25 C6.47941406 8.99023438 6.47941406 8.99023438 6.5859375 10.765625 C7.06205587 14.69339767 7.06205587 14.69339767 9 18 C11.40404738 18.91599427 11.40404738 18.91599427 14.125 19.25 C15.03507813 19.39953125 15.94515625 19.5490625 16.8828125 19.703125 C17.58148438 19.80109375 18.28015625 19.8990625 19 20 C19 21.98 19 23.96 19 26 C17.1863523 25.02296079 15.37411183 24.04330895 13.5625 23.0625 C12.04849609 22.24458984 12.04849609 22.24458984 10.50390625 21.41015625 C8 20 8 20 7 19 C6.67 26.92 6.34 34.84 6 43 C9.0628125 42.8453125 9.0628125 42.8453125 12.1875 42.6875 C13.33605469 42.62949219 14.48460937 42.57148437 15.66796875 42.51171875 C20.19058985 41.81715443 22.9019287 40.32525847 25.8125 36.8125 C26.204375 36.214375 26.59625 35.61625 27 35 C26.67 37.97 26.34 40.94 26 44 C17.42 44 8.84 44 0 44 C0 29.48 0 14.96 0 0 Z " fill="#8C8C8C" transform="translate(205,0)"/>
<path d="M0 0 C1.98 0 3.96 0 6 0 C9.83460991 7.36339836 13.11779303 14.87733948 16.25 22.5625 C17.12799456 24.71054161 18.00808456 26.85772835 18.890625 29.00390625 C19.46345215 30.40878296 19.46345215 30.40878296 20.04785156 31.84204102 C20.81717476 33.93767106 20.81717476 33.93767106 22 35 C22.62829712 33.5162085 22.62829712 33.5162085 23.26928711 32.00244141 C24.8210466 28.33826636 26.37365122 24.67444993 27.92651367 21.01074219 C28.59894563 19.42392618 29.27114724 17.83701254 29.94311523 16.25 C30.90808785 13.97109789 31.87388376 11.69254624 32.83984375 9.4140625 C33.14091537 8.70255035 33.441987 7.99103821 33.75218201 7.25796509 C35.88612829 2.22774341 35.88612829 2.22774341 37 0 C37.66 0.33 38.32 0.66 39 1 C36.47991071 6.94771381 33.95231792 12.89219654 31.41943359 18.83447266 C30.55831747 20.8571698 29.69893437 22.88060564 28.84130859 24.90478516 C27.60967476 27.81087146 26.3718729 30.71426127 25.1328125 33.6171875 C24.74940704 34.52556366 24.36600159 35.43393982 23.97097778 36.36984253 C23.43064407 37.63092331 23.43064407 37.63092331 22.87939453 38.91748047 C22.56406769 39.65916473 22.24874084 40.400849 21.92385864 41.16500854 C21 43 21 43 19 45 C14.64433899 36.82630406 11.13649385 28.33865731 7.64135742 19.77416992 C6.67606469 17.40948686 5.70468067 15.04737324 4.73242188 12.68554688 C4.11683619 11.18503991 3.50158891 9.68439406 2.88671875 8.18359375 C2.59617111 7.47641708 2.30562347 6.76924042 2.00627136 6.04063416 C0 1.11630288 0 1.11630288 0 0 Z " fill="#8C8C8C" transform="translate(2,2)"/>
<path d="M0 0 C2.6796875 -0.48046875 2.6796875 -0.48046875 6 0 C8.1889492 2.2709762 9.6078368 4.93794082 11.125 7.6875 C11.95808002 9.13055966 12.79396503 10.57200405 13.6328125 12.01171875 C14.02758789 12.69669434 14.42236328 13.38166992 14.82910156 14.08740234 C16.34863269 16.56947216 18.10947959 18.79148883 20 21 C21.54074107 18.26070622 23.05392858 15.50712161 24.5625 12.75 C25.00013672 11.97269531 25.43777344 11.19539062 25.88867188 10.39453125 C26.29794922 9.64042969 26.70722656 8.88632813 27.12890625 8.109375 C27.51119385 7.41811523 27.89348145 6.72685547 28.28735352 6.01464844 C29.14174203 3.59929592 28.84205836 2.37922307 28 0 C30.31 0 32.62 0 35 0 C34.44699219 0.63808594 33.89398438 1.27617188 33.32421875 1.93359375 C23.21638473 15.26913947 19.40094268 28.43782711 20 45 C18.35 45 16.7 45 15 45 C15.09023437 43.906875 15.18046875 42.81375 15.2734375 41.6875 C15.82769088 26.59691766 9.44220294 16.44194691 1.26928711 4.12866211 C0 2 0 2 0 0 Z " fill="#8D8D8D" transform="translate(67,2)"/>
</svg>
