<svg width="31" height="33" viewBox="0 0 31 33" fill="none" xmlns="http://www.w3.org/2000/svg">
<path d="M7.4296 32.7124C4.55758 31.9728 2.45108 29.349 2.11586 26.4387C1.48116 22.0331 3.3456 17.7206 5.83323 14.183C5.36823 13.1509 4.7318 12.591 3.80722 13.974C2.12394 16.3003 0.895656 18.9374 0.0693086 21.6773C-0.455116 18.1328 2.11616 14.7364 3.75104 12.235C3.43517 10.7923 1.67982 8.85552 1.74821 8.88359C0.819894 7.73126 -0.203409 5.39637 0.775124 4.03413C2.10491 1.79104 4.57749 -0.0715074 7.27115 0.00211015C8.94911 0.40592 9.75968 2.1299 10.7844 3.36861L11.8932 4.85924C15.6255 2.86755 19.8368 1.13698 24.1414 1.92849C27.3234 2.42195 29.9664 5.03942 30.5162 8.20811C31.6012 13.5553 29.274 18.9334 26.1445 23.1659C22.8993 27.4519 18.5496 31.2455 13.2509 32.6303C11.3539 33.023 9.32573 33.1799 7.4296 32.7124ZM14.886 30.591C18.948 29.2705 22.018 26.0598 24.7365 22.9094C27.7071 19.1343 29.7089 14.1448 28.7302 9.30344C28.0171 6.19574 25.142 3.79695 21.9508 3.67364C18.8471 3.47286 15.757 4.43665 13.0254 5.84614C12.9689 6.28779 13.6789 7.71176 14.3563 6.96351C17.2511 5.45935 20.7913 4.78774 23.9475 5.81932C25.9888 6.57764 27.4657 8.55568 27.5243 10.7457C27.9071 15.3856 25.0759 19.587 21.7984 22.6017C20.7272 23.8663 19.5186 24.355 17.8091 23.5009C15.3945 22.3945 12.8806 21.4767 10.5278 20.2514C8.96479 18.7854 7.86875 16.8992 6.5463 15.2206C6.08955 15.7753 5.64136 16.7451 5.24195 17.4627C3.63644 20.6356 2.54852 24.6771 4.50918 27.9502C6.19254 30.876 9.95922 31.6998 13.0656 31.0478C13.6819 30.9369 14.2902 30.7831 14.886 30.591ZM19.2377 23.3608C18.717 20.362 18.3899 17.3197 18.0101 14.3074C16.6523 12.1045 14.9183 10.07 13.5829 7.90176C12.1669 6.0088 10.7082 3.92488 9.1956 2.30986C8.40049 0.946323 6.77617 0.156798 5.29076 0.941868C3.30831 1.77435 1.31418 3.37754 0.891779 5.58777C1.38381 7.32297 2.73887 8.72992 3.70415 10.2466C6.12426 13.4339 8.26087 16.8081 10.6536 19.6699C13.5367 20.9293 16.5667 22.1943 19.3075 23.5081L19.2377 23.3608ZM11.2232 18.5557C9.95198 17.928 9.4156 16.2849 8.44666 15.2373C7.11918 13.372 5.63971 11.5918 4.53355 9.58443C4.89564 8.23767 5.34103 7.98046 6.12352 7.058C7.27511 6.23927 9.56828 4.12571 11.0238 6.20339C12.9484 8.64706 14.8652 11.1168 16.4833 13.7764L18.046 20.218L16.6701 21.3122C15.2837 20.5204 11.2232 18.5557 11.2232 18.5557ZM9.89231 12.421C8.76489 10.8993 7.71241 9.3036 6.43864 7.90264C4.80759 8.98864 5.83661 10.4055 6.71345 11.7538C8.16635 13.6433 9.46427 15.6592 11.023 17.4627C13.2147 15.4526 10.3089 13.363 9.89231 12.421ZM15.6385 13.9495C15.2403 12.5472 14.0454 11.412 13.2535 10.1741C12.1452 8.68463 11.065 7.17342 9.91304 5.71708C9.16372 6.12083 8.32858 6.15771 7.73249 6.78254C8.86312 8.55587 10.1498 10.3969 11.3998 12.1114C12.6163 13.6253 14.1507 14.5449 15.6385 13.9495ZM3.1423 8.21157C1.89396 6.70884 3.8194 5.08438 4.88511 4.13654C5.86427 3.31264 7.11033 2.69736 8.35693 2.90047C9.14376 3.02871 10.1098 4.02869 9.44145 4.46888C7.80385 5.54754 5.72147 6.30101 4.61333 8.1701C4.09594 9.14168 3.74812 9.15194 3.1423 8.21157ZM4.49983 7.1583C5.45378 5.66766 7.20009 5.07803 8.61166 4.16019C8.38369 2.48401 6.21999 3.87766 5.4325 4.51973C4.64754 5.27334 2.38528 6.94259 3.90583 7.8524C4.17459 7.68753 4.31795 7.40118 4.49983 7.1583ZM1.81894 6.07584C1.51507 4.39829 2.97699 2.96075 4.29534 2.14367C5.05192 1.68302 7.6378 0.78531 7.38076 2.22197C5.39611 2.85408 3.63675 4.21503 2.54046 5.9992C2.37337 6.29015 1.93461 6.59702 1.81894 6.07584ZM23.0926 19.6119C25.0398 17.0264 26.6956 13.643 25.6873 10.3563C24.7174 7.4355 21.1887 6.46106 18.4355 7.02239C17.3213 7.41311 14.7599 7.44474 14.895 8.76565C16.065 10.4543 17.3282 12.0753 18.5549 13.7226C18.9713 16.7794 19.3126 19.8851 19.7918 22.9032C21.0533 22.0068 22.1017 20.7976 23.0926 19.6119Z" fill="black"/>
</svg>
