<svg width="30" height="30" viewBox="0 0 30 30" fill="none" xmlns="http://www.w3.org/2000/svg">
<path d="M26.7684 3.23052C25.7458 2.20644 24.5313 1.39398 23.1943 0.839656C21.8573 0.285327 20.4241 0 18.9767 0C17.5293 0 16.0961 0.285327 14.7591 0.839656C13.4221 1.39398 12.2075 2.20644 11.1849 3.23052L8.42565 6.00483C8.35971 6.07114 8.28138 6.1246 8.21534 6.19081C8.15003 6.25629 8.09721 6.33375 8.03181 6.39914L3.22984 11.1998C2.20661 12.2217 1.39473 13.4351 0.840558 14.7706C0.286381 16.1062 0.000759934 17.5378 1.51641e-06 18.9837C-0.00153018 21.9039 1.15734 24.7051 3.22167 26.771C5.28601 28.837 8.0867 29.9985 11.0076 30C13.9286 30.0015 16.7305 28.843 18.797 26.7792L26.7194 18.8589C27.7544 17.8389 28.5771 16.6242 29.1401 15.2848C29.7032 13.9454 29.9954 12.5078 29.9999 11.0549C30.0045 9.60202 29.7213 8.16262 29.1667 6.81971C28.612 5.4768 27.797 4.25695 26.7684 3.23052ZM13.8475 5.92506C14.6621 5.10306 15.7034 4.54274 16.8383 4.31583C17.9732 4.08891 19.15 4.20571 20.2181 4.65128C20.9238 4.94523 21.5625 5.37799 22.0966 5.92506C22.4009 6.23103 22.5717 6.64493 22.5717 7.07636C22.5717 7.50779 22.4009 7.9217 22.0966 8.22767C21.7906 8.53183 21.3766 8.70255 20.945 8.70255C20.5135 8.70255 20.0995 8.53183 19.7934 8.22767C19.4348 7.86951 18.9781 7.62562 18.481 7.52679C17.9838 7.42797 17.4685 7.47865 17.0002 7.67243C16.6849 7.79372 16.4003 7.98334 16.1671 8.22767C15.8586 8.52039 15.4482 8.68144 15.023 8.67665C14.5977 8.67187 14.191 8.50163 13.8893 8.20204C13.5875 7.90246 13.4143 7.49712 13.4065 7.07201C13.3987 6.64691 13.5569 6.23549 13.8475 5.92506ZM21.363 20.714C21.0105 21.0792 20.4631 21.1825 20.0121 20.9495C17.6585 19.7336 15.5375 18.1084 13.7495 16.148C11.8193 14.3854 10.2197 12.2952 9.02337 9.97645C8.79254 9.52906 8.89023 8.9867 9.24626 8.63076C9.84973 8.02745 10.8769 8.23201 11.2709 8.98895C12.3276 11.0193 13.7286 12.8565 15.4157 14.417C17.0103 16.1744 18.9006 17.632 20.9964 18.7261C21.7371 19.1129 21.9434 20.1127 21.363 20.714Z" fill="#2D2D2D"/>
</svg>
