<svg width="118" height="99" viewBox="0 0 118 99" fill="none" xmlns="http://www.w3.org/2000/svg">
<g opacity="0.34">
<path opacity="0.5" fill-rule="evenodd" clip-rule="evenodd" d="M44.4999 34.0831C-0.577122 34.0831 11.0668 -22.1372 44.4999 -35C77.9322 -22.1372 89.5769 34.0831 44.4999 34.0831Z" fill="#B481EB"/>
<path opacity="0.5" fill-rule="evenodd" clip-rule="evenodd" d="M44.4995 34.0831C9.96913 7.26339 57.9297 -28.8759 92.4736 -18.8377C109.152 10.9074 79.0307 60.9028 44.4995 34.0831Z" fill="#AB81EB"/>
<path opacity="0.24" fill-rule="evenodd" clip-rule="evenodd" d="M44.4998 34.0826C36.6724 -7.00823 98.5086 -6.15584 118 22.0867C110.12 54.796 52.3279 75.1728 44.4998 34.0826Z" fill="#A280EC"/>
<path opacity="0.27" fill-rule="evenodd" clip-rule="evenodd" d="M44.4999 34.0828C67.0384 -2.0512 113.816 35.3923 109.135 68.6246C80.3838 88.9928 21.9621 70.2167 44.4999 34.0828Z" fill="#9980EC"/>
<path opacity="0.33" fill-rule="evenodd" clip-rule="evenodd" d="M44.4995 34.0833C86.858 19.8129 96.6894 76.3282 70.0255 99C33.8569 97.4968 2.14171 48.3538 44.4995 34.0833Z" fill="#9080EC"/>
<path opacity="0.34" fill-rule="evenodd" clip-rule="evenodd" d="M44.4992 34.0833C86.8577 48.3545 55.1426 97.4968 18.9725 99C-7.68993 76.3282 2.14072 19.8129 44.4992 34.0833Z" fill="#867FEC"/>
<path opacity="0.5" fill-rule="evenodd" clip-rule="evenodd" d="M44.5005 34.0828C67.0383 70.2174 8.61652 88.9929 -20.1346 68.624C-24.8151 35.3923 21.962 -2.05119 44.5005 34.0828Z" fill="#7D7FED"/>
<path opacity="0.5" fill-rule="evenodd" clip-rule="evenodd" d="M44.5001 34.0827C36.672 75.1729 -21.12 54.7968 -29 22.0861C-9.50877 -6.15574 52.3274 -7.00812 44.5001 34.0827Z" fill="#747EED"/>
<path opacity="0.5" fill-rule="evenodd" clip-rule="evenodd" d="M44.4996 34.0831C9.96846 60.9028 -20.1526 10.9081 -3.47379 -18.8376C31.0694 -28.8758 79.03 7.26276 44.4996 34.0831Z" fill="#6B7EED"/>
</g>
</svg>
