<?xml version="1.0" encoding="UTF-8"?>
<svg version="1.1" xmlns="http://www.w3.org/2000/svg" width="780" height="808">
<path d="M0 0 C1.55207723 0.80146605 3.09606883 1.61873065 4.6328125 2.44921875 C5.4592627 2.89144775 6.28571289 3.33367676 7.13720703 3.78930664 C20.83845291 11.29897023 33.13177783 20.74795677 44.7578125 31.13671875 C45.30421387 31.62140625 45.85061523 32.10609375 46.41357422 32.60546875 C65.93788557 49.99563531 82.09121424 70.87856642 95.7578125 93.13671875 C96.38010742 92.89550293 97.00240234 92.65428711 97.64355469 92.40576172 C146.32786386 73.61987141 201.83785955 61.56669921 252.89648438 79.29907227 C255.45574348 80.450806 256.32064723 81.55057723 257.3828125 84.13671875 C257.94548828 85.48056641 257.94548828 85.48056641 258.51953125 86.8515625 C258.92816406 87.93566406 259.33679688 89.01976563 259.7578125 90.13671875 C260.30481397 91.47183642 260.85308209 92.80643557 261.40234375 94.140625 C271.4358197 119.22431488 275.90917626 146.21903791 276.7578125 173.13671875 C276.8196875 174.92916016 276.8196875 174.92916016 276.8828125 176.7578125 C277.24092956 197.9091014 274.90914481 218.94556893 271.09326172 239.71850586 C270.74599076 242.22194025 270.69982636 244.61263255 270.7578125 247.13671875 C272.09005859 247.68585938 272.09005859 247.68585938 273.44921875 248.24609375 C302.89536332 260.62480294 329.65700772 276.99583901 352.7578125 299.13671875 C353.34320801 299.68956543 353.92860352 300.24241211 354.53173828 300.81201172 C365.59980448 311.30322161 375.21563098 322.626007 383.61328125 335.37109375 C384.02215576 335.99081055 384.43103027 336.61052734 384.85229492 337.24902344 C388.65779693 345.18219721 382.34739906 357.90243502 379.66552734 365.61669922 C370.49623115 391.07271733 357.23106493 414.44920854 339.7578125 435.13671875 C338.96503906 436.11253906 338.17226563 437.08835937 337.35546875 438.09375 C330.05189822 447.01002749 322.01081825 455.10155883 313.7578125 463.13671875 C317.64521928 471.06023826 317.64521928 471.06023826 321.80859375 478.83984375 C343.35356736 517.6509087 354.70574596 562.75520089 352.7578125 607.13671875 C352.72494141 608.1023877 352.69207031 609.06805664 352.65820312 610.06298828 C352.34305996 615.60858102 352.09356059 619.25471174 347.7578125 623.13671875 C345.57167946 624.80863283 343.43517342 626.33532841 341.1328125 627.82421875 C340.47821045 628.25138184 339.8236084 628.67854492 339.14916992 629.11865234 C296.48113464 656.5599373 247.8519573 665.66963518 197.7578125 665.13671875 C197.62842285 665.76723145 197.4990332 666.39774414 197.36572266 667.04736328 C187.79160185 712.86343493 170.28294043 755.9742543 138.07421875 790.67431641 C136.61726051 792.24079346 136.61726051 792.24079346 135.0078125 794.5546875 C128.45294252 799.16358046 115.90476884 795.474489 108.42578125 794.23046875 C67.97172588 786.80432581 31.27826436 767.09473793 -0.2421875 741.13671875 C-1.1496875 741.92046875 -2.0571875 742.70421875 -2.9921875 743.51171875 C-3.96478516 744.34123047 -3.96478516 744.34123047 -4.95703125 745.1875 C-6.55869007 746.55370129 -8.15457088 747.92669188 -9.74609375 749.3046875 C-22.97168266 760.58046775 -37.07959459 770.63772584 -52.2421875 779.13671875 C-52.93828125 779.53455566 -53.634375 779.93239258 -54.3515625 780.34228516 C-76.91071516 793.15680383 -102.30868876 802.48290217 -128.2421875 805.13671875 C-129.34046875 805.29011719 -130.43875 805.44351563 -131.5703125 805.6015625 C-136.38024877 806.00984779 -139.77921053 806.0976727 -143.89453125 803.39453125 C-146.59383899 800.79330262 -148.90944911 798.0712145 -151.2421875 795.13671875 C-152.12094794 794.08602692 -153.00119135 793.03657385 -153.8828125 791.98828125 C-156.7946939 788.46188452 -159.54099091 784.82622571 -162.2421875 781.13671875 C-162.71382324 780.49299316 -163.18545898 779.84926758 -163.67138672 779.18603516 C-185.44962757 749.00034609 -198.50441124 714.03396944 -206.6796875 677.94921875 C-206.84380127 677.22492676 -207.00791504 676.50063477 -207.17700195 675.75439453 C-207.95143279 672.14096177 -208.30582496 668.82176269 -208.2421875 665.13671875 C-208.9134668 665.12737305 -209.58474609 665.11802734 -210.27636719 665.10839844 C-260.29233675 664.24576251 -306.29961936 652.45669157 -347.2421875 623.13671875 C-347.9746167 622.65565674 -348.7070459 622.17459473 -349.46166992 621.67895508 C-351.2421875 620.13671875 -351.2421875 620.13671875 -351.9765625 616.45703125 C-352.46577151 609.32321276 -352.48641746 602.16001521 -352.4921875 595.01171875 C-352.49286224 594.2586142 -352.49353699 593.50550964 -352.49423218 592.72958374 C-352.47571938 579.66145268 -351.5948341 567.01262631 -349.2421875 554.13671875 C-349.0865332 553.24114258 -348.93087891 552.34556641 -348.77050781 551.42285156 C-344.21449617 525.84189196 -335.44931376 500.35374741 -323.27734375 477.39453125 C-322.70886719 476.31945312 -322.14039063 475.244375 -321.5546875 474.13671875 C-321.05582031 473.24984375 -320.55695313 472.36296875 -320.04296875 471.44921875 C-318.99348153 469.20606216 -318.99348153 469.20606216 -319.92626953 467.26586914 C-321.50749728 464.70744851 -323.33626501 462.85256846 -325.49609375 460.7578125 C-326.77141968 459.50810669 -326.77141968 459.50810669 -328.07250977 458.2331543 C-329.42493774 456.9169812 -329.42493774 456.9169812 -330.8046875 455.57421875 C-337.75270097 448.71183974 -344.40506793 441.98070655 -350.2421875 434.13671875 C-351.10253587 433.01667451 -351.96323745 431.89690153 -352.82421875 430.77734375 C-369.57379104 408.73034232 -397.64322752 368.2656262 -394.2421875 339.13671875 C-392.07862476 334.82199191 -389.11163416 331.00934204 -386.2421875 327.13671875 C-385.84064453 326.58951172 -385.43910156 326.04230469 -385.02539062 325.47851562 C-379.61582767 318.17175997 -373.75421832 311.34648916 -367.5546875 304.69921875 C-366.64674438 303.7242041 -366.64674438 303.7242041 -365.72045898 302.72949219 C-345.85618642 281.77555006 -321.1412643 266.16786698 -295.29321289 253.69873047 C-292.57697674 252.37743041 -290.39480307 251.28933432 -288.2421875 249.13671875 C-288.32445269 246.58266385 -288.32445269 246.58266385 -288.88671875 243.640625 C-289.16032227 241.96516602 -289.16032227 241.96516602 -289.43945312 240.25585938 C-289.64248047 239.08216797 -289.84550781 237.90847656 -290.0546875 236.69921875 C-292.64317251 221.29904023 -293.48260203 206.48114655 -293.4921875 190.88671875 C-293.49286224 189.90217712 -293.49353699 188.9176355 -293.49423218 187.90325928 C-293.47848527 173.44818351 -293.10015574 159.35193216 -290.2421875 145.13671875 C-290.06526367 144.22422363 -289.88833984 143.31172852 -289.70605469 142.37158203 C-287.33556323 130.39834843 -284.26628152 118.72390699 -279.99853516 107.28466797 C-279.22559786 105.0896059 -278.59661342 102.8821048 -277.97265625 100.640625 C-274.91047603 90.727989 -274.91047603 90.727989 -270.36230469 88.015625 C-265.65823303 86.10080614 -260.79257096 85.2355205 -255.78515625 84.50732422 C-253.33631991 84.15043736 -250.92058917 83.70921063 -248.4921875 83.234375 C-203.89247097 74.75137717 -158.2352162 83.39259453 -116.2421875 99.13671875 C-115.61054688 98.05777344 -114.97890625 96.97882813 -114.328125 95.8671875 C-96.63957597 66.06250333 -73.73478033 37.28374992 -45.2421875 17.13671875 C-44.38028809 16.51627686 -44.38028809 16.51627686 -43.50097656 15.88330078 C-36.04844573 10.55627258 -28.27283952 5.85282379 -20.2421875 1.44921875 C-19.45303955 1.00247803 -18.6638916 0.5557373 -17.85083008 0.09545898 C-11.19079 -3.44452404 -6.85493195 -3.18853572 0 0 Z " fill="#F08931" transform="translate(394.2421875,2.86328125)"/>
</svg>
