<?xml version="1.0" encoding="UTF-8"?>
<svg version="1.1" xmlns="http://www.w3.org/2000/svg" width="800" height="836">
<path d="M0 0 C0.64308105 0.32701904 1.28616211 0.65403809 1.94873047 0.9909668 C2.63692871 1.33925537 3.32512695 1.68754395 4.03417969 2.04638672 C23.22036453 12.04485144 40.15024124 25.76396285 55.69873047 40.6784668 C56.52244141 41.46092773 57.34615234 42.24338867 58.19482422 43.04956055 C63.31088172 48.02375163 67.86272182 53.33940452 72.28930664 58.93164062 C73.40903358 60.3194193 74.54910025 61.69078207 75.69604492 63.05615234 C81.22772098 69.67787824 86.15661027 76.52887278 90.88623047 83.7409668 C91.55847656 84.75223633 92.23072266 85.76350586 92.92333984 86.80541992 C97.01930638 92.99922326 100.93935875 99.27488867 104.69873047 105.6784668 C105.75616455 105.41005981 105.75616455 105.41005981 106.83496094 105.13623047 C109.42454699 104.48127583 112.01670192 103.83717312 114.60986328 103.1965332 C116.08121341 102.83161911 117.55185469 102.46384097 119.02197266 102.09399414 C140.24228526 96.77012587 160.96013872 93.44769106 182.88623047 93.4284668 C183.58437866 93.42779205 184.28252686 93.42711731 185.00183105 93.42642212 C234.84127209 93.50228879 234.84127209 93.50228879 248.69873047 104.6784668 C257.68187238 119.0435792 262.05978807 137.19766034 265.94873047 153.4909668 C266.18277588 154.447854 266.41682129 155.40474121 266.65795898 156.390625 C270.82948357 174.72530508 272.20614823 193.34490515 272.08984375 212.10571289 C272.07372981 215.17859227 272.08983716 218.25015723 272.10888672 221.32299805 C272.12166196 235.6278578 270.79921189 249.53441634 268.69873047 263.6784668 C269.2876004 263.86607071 269.87647034 264.05367462 270.48318481 264.2469635 C274.79097863 265.64596286 278.90620452 267.09182463 282.94091797 269.17456055 C283.85236572 269.64450439 284.76381348 270.11444824 285.70288086 270.59863281 C286.65026123 271.09935303 287.5976416 271.60007324 288.57373047 272.1159668 C289.57460693 272.64311279 290.5754834 273.17025879 291.60668945 273.71337891 C305.97214873 281.38398992 319.55520837 289.94227404 332.09423828 300.3503418 C333.65507032 301.64232693 335.23528109 302.9107881 336.81591797 304.1784668 C355.23296934 319.11712573 374.92710951 338.13522488 385.69873047 359.6784668 C385.0486345 400.63451274 353.05463256 445.25485393 326.29248047 473.90112305 C322.68713632 477.76166475 319.19103794 481.71584858 315.69873047 485.6784668 C317.01695115 490.13462585 318.84639012 494.11437796 320.92236328 498.24804688 C341.61383441 539.67452513 354.80114147 591.8795226 347.09716797 638.3034668 C345.21719599 642.84060588 342.70482901 644.43913024 338.63623047 646.9909668 C337.92088135 647.45752686 337.20553223 647.92408691 336.46850586 648.40478516 C334.22598287 649.8529233 331.96461037 651.26722627 329.69873047 652.6784668 C329.02326172 653.11094727 328.34779297 653.54342773 327.65185547 653.98901367 C292.91557147 676.17784075 250.84550093 686.72284386 209.92382812 688.38842773 C206.70549714 688.52072147 203.8026946 688.83604071 200.69873047 689.6784668 C200.48108032 690.72466187 200.48108032 690.72466187 200.2590332 691.79199219 C193.92723531 721.94141394 185.24910719 750.42104142 170.69873047 777.6784668 C170.3590625 778.32444824 170.01939453 778.97042969 169.66943359 779.63598633 C145.91342393 824.57112007 145.91342393 824.57112007 129.69873047 832.6784668 C102.25290979 835.61050718 71.77039594 823.64222868 47.69873047 811.6784668 C46.90418457 811.28933105 46.10963867 810.90019531 45.29101562 810.49926758 C25.79870355 800.88505586 8.32369361 788.6227776 -8.30126953 774.6784668 C-11.16888736 776.01049603 -13.51453031 777.51734604 -15.96142578 779.5144043 C-39.78921034 798.67361983 -66.25567124 813.90454493 -95.30126953 823.6784668 C-96.0215332 823.92532227 -96.74179687 824.17217773 -97.48388672 824.42651367 C-108.96259843 828.29742907 -120.73186196 830.61580928 -132.71630859 832.30053711 C-134.95581948 832.62796088 -137.16420278 833.03078668 -139.38720703 833.4519043 C-143.85114778 833.98356466 -147.24494462 834.13212546 -151.04394531 831.4465332 C-155.72697276 827.36817887 -159.50771249 822.56890249 -163.30126953 817.6784668 C-164.35448283 816.36973451 -165.40786335 815.06113679 -166.46142578 813.75268555 C-194.7890643 777.83477969 -211.02835655 734.29136664 -219.30126953 689.6784668 C-220.3517749 689.60853516 -221.40228027 689.53860352 -222.48461914 689.46655273 C-273.03819532 686.05337117 -321.67111099 677.99995644 -364.30126953 648.6784668 C-365.37892578 647.97592773 -366.45658203 647.27338867 -367.56689453 646.54956055 C-369.07509766 645.53055664 -369.07509766 645.53055664 -370.61376953 644.4909668 C-371.49677734 643.89928711 -372.37978516 643.30760742 -373.28955078 642.69799805 C-377.40540469 638.56616024 -376.48566068 631.62081389 -376.53955078 626.07299805 C-376.54934464 625.24445816 -376.55913849 624.41591827 -376.56922913 623.56227112 C-376.99128623 578.48935595 -368.15311039 535.27650539 -346.43798828 495.3503418 C-345.96731934 494.483125 -345.49665039 493.6159082 -345.01171875 492.72241211 C-344.09899582 491.06146679 -343.17024878 489.40919899 -342.22363281 487.76733398 C-341.81226074 487.02644531 -341.40088867 486.28555664 -340.97705078 485.5222168 C-340.60491455 484.87446289 -340.23277832 484.22670898 -339.84936523 483.55932617 C-339.09103459 481.63670966 -339.09103459 481.63670966 -340.02636719 479.61621094 C-342.04530632 476.54759357 -344.72455537 474.14215732 -347.36376953 471.6159668 C-353.14248845 465.96301063 -358.28989056 460.02621349 -363.30126953 453.6784668 C-364.80026604 451.88596048 -366.30027903 450.09430374 -367.80126953 448.3034668 C-389.24915621 421.96590647 -410.88685072 385.87383863 -414.64501953 351.5378418 C-414.20542608 347.88122351 -412.91279585 345.93333117 -410.80126953 342.9284668 C-410.06779297 341.88432617 -409.33431641 340.84018555 -408.57861328 339.7644043 C-403.22762404 332.51349264 -397.52610888 325.69566759 -391.44580078 319.0456543 C-389.55588879 316.95952193 -387.73815206 314.83196919 -385.92626953 312.6784668 C-365.18550415 289.06227712 -336.04124686 272.48131596 -307.93017578 259.30761719 C-306.98400391 258.86409912 -306.03783203 258.42058105 -305.06298828 257.96362305 C-304.21696045 257.57053955 -303.37093262 257.17745605 -302.49926758 256.77246094 C-300.10377189 255.63768884 -300.10377189 255.63768884 -297.30126953 253.6784668 C-297.43404297 252.71553711 -297.56681641 251.75260742 -297.70361328 250.76049805 C-303.26913588 207.6434494 -299.95378604 164.05643612 -285.30126953 123.0534668 C-284.98125977 122.15297607 -284.66125 121.25248535 -284.33154297 120.32470703 C-278.73365961 105.15365231 -278.73365961 105.15365231 -273.16455078 101.77612305 C-271.89079055 101.36413531 -270.60019214 101.00250242 -269.30126953 100.6784668 C-268.50124512 100.46432129 -267.7012207 100.25017578 -266.87695312 100.02954102 C-221.90001239 88.73366044 -173.96691117 91.90744752 -130.14501953 106.7956543 C-127.3200217 107.82670767 -127.3200217 107.82670767 -124.30126953 107.6784668 C-122.70274346 105.26833387 -121.30643824 102.89853625 -119.92626953 100.3659668 C-103.32109561 71.11571917 -81.05697352 43.28710998 -54.30126953 22.6784668 C-53.77259277 22.26274414 -53.24391602 21.84702148 -52.69921875 21.41870117 C-41.94535071 12.99530584 -30.38675449 6.03162413 -18.30126953 -0.3215332 C-17.65158203 -0.66571289 -17.00189453 -1.00989258 -16.33251953 -1.36450195 C-10.16954119 -4.351384 -5.93871299 -2.87835376 0 0 Z " fill="#F9689D" transform="translate(414.30126953125,3.321533203125)"/>
<path d="M0 0 C-1.42201275 4.985509 -3.63096366 9.42640936 -5.93530273 14.04467773 C-15.41683358 33.08910691 -23.28529815 52.91509144 -28.40380859 73.59423828 C-29.08094215 76.32661913 -29.78598369 79.05132616 -30.48828125 81.77734375 C-34.18651256 96.40363022 -36.86078945 111.06969297 -39 126 C-38.18249268 126.02513672 -37.36498535 126.05027344 -36.52270508 126.07617188 C-10.84935328 127.04170164 15.02725156 134.78022865 38 146 C39.16144531 146.56589844 40.32289063 147.13179687 41.51953125 147.71484375 C74.41085671 164.61788283 98.31925522 192.48145555 110.6875 227.1875 C116.15350281 244.30709295 118.20616022 261.53897732 118.1875 279.4375 C118.1882251 280.14532623 118.1889502 280.85315247 118.18969727 281.58242798 C118.18858939 291.37095584 117.82696705 300.99769506 116.4375 310.69921875 C116.06318306 313.52330635 115.91306941 316.15845628 116 319 C116.6084375 319.1959375 117.216875 319.391875 117.84375 319.59375 C149.87673873 330.52265204 179.86200278 352.25799526 198 381 C198.69351562 382.0828125 199.38703125 383.165625 200.1015625 384.28125 C223.68831018 423.25857821 224.05828938 469.663489 213.4675293 512.81298828 C203.49516244 551.64701925 183.90069703 587.76974954 159 619 C158.20851563 620.00546875 157.41703125 621.0109375 156.6015625 622.046875 C150.74858847 629.35781006 144.48125625 636.24816396 138 643 C137.20335937 643.83063965 136.40671875 644.6612793 135.5859375 645.51708984 C124.68658672 656.81230569 113.74212076 667.56790813 100.88476562 676.65771484 C99.09063672 677.93545069 97.33174962 679.24946027 95.578125 680.58203125 C64.49935991 703.94239392 27.36524777 718.65292714 -11 724 C-12.07378906 724.20625 -13.14757812 724.4125 -14.25390625 724.625 C-18.81597555 725.14207043 -22.84708463 725.4472601 -26.81298828 722.78125 C-31.46286732 718.71022047 -35.22457475 713.86706123 -39 709 C-40.0532133 707.69126772 -41.10659382 706.38266999 -42.16015625 705.07421875 C-70.48779477 669.15631289 -86.72708702 625.61289985 -95 581 C-96.05050537 580.93006836 -97.10101074 580.86013672 -98.18334961 580.78808594 C-148.73692579 577.37490438 -197.36984145 569.32148965 -240 540 C-241.07765625 539.29746094 -242.1553125 538.59492187 -243.265625 537.87109375 C-244.77382812 536.85208984 -244.77382812 536.85208984 -246.3125 535.8125 C-247.19550781 535.22082031 -248.07851562 534.62914062 -248.98828125 534.01953125 C-253.10413516 529.88769344 -252.18439115 522.94234709 -252.23828125 517.39453125 C-252.2480751 516.56599136 -252.25786896 515.73745148 -252.26795959 514.88380432 C-252.6900167 469.81088915 -243.85184086 426.59803859 -222.13671875 386.671875 C-221.6660498 385.8046582 -221.19538086 384.93744141 -220.71044922 384.04394531 C-219.79772629 382.38299999 -218.86897925 380.73073219 -217.92236328 379.08886719 C-217.51099121 378.34797852 -217.09961914 377.60708984 -216.67578125 376.84375 C-216.30364502 376.19599609 -215.93150879 375.54824219 -215.5480957 374.88085938 C-214.78976506 372.95824287 -214.78976506 372.95824287 -215.72509766 370.93774414 C-217.74403679 367.86912677 -220.42328584 365.46369053 -223.0625 362.9375 C-228.84121892 357.28454384 -233.98862103 351.3477467 -239 345 C-240.49899651 343.20749368 -241.9990095 341.41583694 -243.5 339.625 C-264.94788668 313.28743968 -286.58558119 277.19537184 -290.34375 242.859375 C-289.90415654 239.20275671 -288.61152632 237.25486438 -286.5 234.25 C-285.76652344 233.20585937 -285.03304688 232.16171875 -284.27734375 231.0859375 C-278.92635451 223.83502584 -273.22483935 217.01720079 -267.14453125 210.3671875 C-265.25461926 208.28105514 -263.43688253 206.15350239 -261.625 204 C-240.88423462 180.38381033 -211.73997732 163.80284917 -183.62890625 150.62915039 C-182.20964844 149.96387329 -182.20964844 149.96387329 -180.76171875 149.28515625 C-179.91569092 148.89207275 -179.06966309 148.49898926 -178.19799805 148.09399414 C-175.80250236 146.95922204 -175.80250236 146.95922204 -173 145 C-173.13277344 144.03707031 -173.26554687 143.07414063 -173.40234375 142.08203125 C-178.96786635 98.9649826 -175.65251651 55.37796932 -161 14.375 C-160.51998535 13.02426392 -160.51998535 13.02426392 -160.03027344 11.64624023 C-154.43239008 -3.52481448 -154.43239008 -3.52481448 -148.86328125 -6.90234375 C-147.58952101 -7.31433148 -146.29892261 -7.67596437 -145 -8 C-143.79996338 -8.32121826 -143.79996338 -8.32121826 -142.57568359 -8.64892578 C-95.15261844 -20.55914626 -45.98582752 -15.79537559 0 0 Z " fill="#F771E5" transform="translate(290,112)"/>
<path d="M0 0 C6.01614424 1.10317541 11.15817149 2.71067956 16.5625 5.5625 C17.24086914 5.91256104 17.91923828 6.26262207 18.61816406 6.62329102 C20.75340955 7.734435 22.8775669 8.86459801 25 10 C25.6914209 10.36577148 26.3828418 10.73154297 27.09521484 11.10839844 C40.43253166 18.20278274 51.99722994 26.58266684 63 37 C63.89589844 37.83144531 64.79179687 38.66289062 65.71484375 39.51953125 C92.58994094 65.26383894 105.00558988 101.10993035 106.22265625 137.6953125 C107.46785767 196.9485598 81.39113057 254.35854181 45 300 C44.20851563 301.00546875 43.41703125 302.0109375 42.6015625 303.046875 C36.74858847 310.35781006 30.48125625 317.24816396 24 324 C23.20335937 324.83063965 22.40671875 325.6612793 21.5859375 326.51708984 C10.68658672 337.81230569 -0.25787924 348.56790813 -13.11523438 357.65771484 C-14.90936328 358.93545069 -16.66825038 360.24946027 -18.421875 361.58203125 C-49.50064009 384.94239392 -86.63475223 399.65292714 -125 405 C-126.07378906 405.20625 -127.14757812 405.4125 -128.25390625 405.625 C-132.81597555 406.14207043 -136.84708463 406.4472601 -140.81298828 403.78125 C-145.46286732 399.71022047 -149.22457475 394.86706123 -153 390 C-154.0532133 388.69126772 -155.10659382 387.38266999 -156.16015625 386.07421875 C-184.48779477 350.15631289 -200.72708702 306.61289985 -209 262 C-210.05050537 261.93006836 -211.10101074 261.86013672 -212.18334961 261.78808594 C-262.73692579 258.37490438 -311.36984145 250.32148965 -354 221 C-355.07765625 220.29746094 -356.1553125 219.59492187 -357.265625 218.87109375 C-358.27109375 218.19175781 -359.2765625 217.51242187 -360.3125 216.8125 C-361.63701172 215.92498047 -361.63701172 215.92498047 -362.98828125 215.01953125 C-367.10413516 210.88769344 -366.18439115 203.94234709 -366.23828125 198.39453125 C-366.2480751 197.56599136 -366.25786896 196.73745148 -366.26795959 195.88380432 C-366.75065518 144.33510004 -353.48904255 99.19480921 -329 54 C-324.09544067 54 -323.69651224 54.84598713 -320.3125 58.1875 C-313.04380079 65.11019007 -305.06042804 71.03771174 -297 77 C-296.31131836 77.51353027 -295.62263672 78.02706055 -294.91308594 78.55615234 C-245.49795201 115.22241759 -181.50745949 139.06689659 -119.40649414 131.12475586 C-115.5745475 130.54312448 -111.78763789 129.8194066 -108 129 C-106.72125 128.73316406 -105.4425 128.46632813 -104.125 128.19140625 C-84.31870615 123.47062647 -66.45322686 114.20226583 -51 101 C-50.20207031 100.34773437 -49.40414063 99.69546875 -48.58203125 99.0234375 C-19.76754387 74.56089972 -6.30785378 36.12323716 0 0 Z " fill="#F86BB8" transform="translate(404,431)"/>
<path d="M0 0 C0.64308105 0.32701904 1.28616211 0.65403809 1.94873047 0.9909668 C2.98102783 1.51339966 2.98102783 1.51339966 4.03417969 2.04638672 C23.22036453 12.04485144 40.15024124 25.76396285 55.69873047 40.6784668 C56.52244141 41.46092773 57.34615234 42.24338867 58.19482422 43.04956055 C63.31088172 48.02375163 67.86272182 53.33940452 72.28930664 58.93164062 C73.40903358 60.3194193 74.54910025 61.69078207 75.69604492 63.05615234 C81.22772098 69.67787824 86.15661027 76.52887278 90.88623047 83.7409668 C91.55847656 84.75223633 92.23072266 85.76350586 92.92333984 86.80541992 C97.01930638 92.99922326 100.93935875 99.27488867 104.69873047 105.6784668 C105.75616455 105.41005981 105.75616455 105.41005981 106.83496094 105.13623047 C109.42454699 104.48127583 112.01670192 103.83717312 114.60986328 103.1965332 C116.08121341 102.83161911 117.55185469 102.46384097 119.02197266 102.09399414 C140.24228526 96.77012587 160.96013872 93.44769106 182.88623047 93.4284668 C183.58437866 93.42779205 184.28252686 93.42711731 185.00183105 93.42642212 C234.84127209 93.50228879 234.84127209 93.50228879 248.69873047 104.6784668 C257.68187238 119.0435792 262.05978807 137.19766034 265.94873047 153.4909668 C266.18277588 154.447854 266.41682129 155.40474121 266.65795898 156.390625 C270.82948357 174.72530508 272.20614823 193.34490515 272.08984375 212.10571289 C272.07372981 215.17859227 272.08983716 218.25015723 272.10888672 221.32299805 C272.12166196 235.6278578 270.79921189 249.53441634 268.69873047 263.6784668 C269.2876004 263.86607071 269.87647034 264.05367462 270.48318481 264.2469635 C274.79097863 265.64596286 278.90620452 267.09182463 282.94091797 269.17456055 C283.85236572 269.64450439 284.76381348 270.11444824 285.70288086 270.59863281 C286.65026123 271.09935303 287.5976416 271.60007324 288.57373047 272.1159668 C289.57460693 272.64311279 290.5754834 273.17025879 291.60668945 273.71337891 C305.97214873 281.38398992 319.55520837 289.94227404 332.09423828 300.3503418 C333.65507032 301.64232693 335.23528109 302.9107881 336.81591797 304.1784668 C355.23296934 319.11712573 374.92710951 338.13522488 385.69873047 359.6784668 C385.02352253 402.21656689 351.40864223 447.05612353 323.69873047 476.6784668 C321.96006125 478.5868081 320.23559349 480.50711082 318.51123047 482.4284668 C317.77517578 483.24831055 317.03912109 484.0681543 316.28076172 484.9128418 C315.75869141 485.49549805 315.23662109 486.0781543 314.69873047 486.6784668 C312.31574761 483.7111219 310.4240588 480.54977739 308.54077148 477.24804688 C299.54986611 461.49727924 289.20679015 446.68682671 277.69873047 432.6784668 C277.26866699 432.14543945 276.83860352 431.61241211 276.39550781 431.06323242 C269.77275645 422.8779758 262.55458045 415.33337129 255.13623047 407.8659668 C254.27400879 406.99447998 253.41178711 406.12299316 252.5234375 405.22509766 C246.55758957 399.2880566 240.28795294 393.90943947 233.69873047 388.6784668 C232.63794031 387.80976607 231.57784836 386.94021054 230.51904297 386.0690918 C193.2598632 356.47774323 146.65482345 337.97928703 98.65576172 343.14331055 C77.83927894 345.94355399 56.325377 354.28401455 40.41357422 368.18237305 C38.69873047 369.6784668 38.69873047 369.6784668 36.69873047 370.6784668 C37.36746654 366.40822442 38.82502315 362.77352454 40.51123047 358.8034668 C54.3301702 325.16438512 53.0258387 285.62032435 39.26123047 252.0690918 C30.79424605 233.69573561 20.52270552 216.33801256 7.69873047 200.6784668 C7.24804199 200.12481445 6.79735352 199.57116211 6.33300781 199.00073242 C-4.61324003 185.64440636 -16.59897286 173.22421345 -30.30126953 162.6784668 C-31.58814516 161.6633706 -32.8745702 160.64770301 -34.16064453 159.6315918 C-58.93574676 140.20929525 -86.06520577 125.78728003 -115.01269531 113.64086914 C-118.11578804 112.33594152 -121.20889397 111.00856592 -124.30126953 109.6784668 C-122.72485598 103.45578172 -119.25064635 98.49941546 -115.80126953 93.1784668 C-115.17051514 92.19885986 -114.53976074 91.21925293 -113.88989258 90.20996094 C-105.76833418 77.6719761 -97.1585765 65.90764774 -87.30126953 54.6784668 C-86.56263672 53.82768555 -85.82400391 52.9769043 -85.06298828 52.1003418 C-75.6270439 41.40512147 -65.62733794 31.37091983 -54.30126953 22.6784668 C-53.77404297 22.26419434 -53.24681641 21.84992187 -52.70361328 21.4230957 C-41.94823941 12.99784489 -30.38887601 6.03273938 -18.30126953 -0.3215332 C-17.65158203 -0.66571289 -17.00189453 -1.00989258 -16.33251953 -1.36450195 C-10.16954119 -4.351384 -5.93871299 -2.87835376 0 0 Z " fill="#F96371" transform="translate(414.30126953125,3.321533203125)"/>
<path d="M0 0 C0.33 0.99 0.66 1.98 1 3 C1.66 3 2.32 3 3 3 C23.20039676 38.10146866 32.00665366 80.63839772 21.9375 120.375 C17.38172672 137.14567916 9.99931724 152.80987641 0 167 C-0.40911621 167.58265625 -0.81823242 168.1653125 -1.23974609 168.765625 C-17.68842379 191.7588179 -39.87875443 208.74136491 -64 223 C-65.01900391 223.60255615 -65.01900391 223.60255615 -66.05859375 224.21728516 C-130.14944178 261.45026049 -215.08977043 270.55218033 -286.25 251.75 C-310.45867553 245.06641378 -333.27206314 235.25690185 -354 221 C-355.07765625 220.29746094 -356.1553125 219.59492187 -357.265625 218.87109375 C-358.27109375 218.19175781 -359.2765625 217.51242187 -360.3125 216.8125 C-361.63701172 215.92498047 -361.63701172 215.92498047 -362.98828125 215.01953125 C-367.10413516 210.88769344 -366.18439115 203.94234709 -366.23828125 198.39453125 C-366.2480751 197.56599136 -366.25786896 196.73745148 -366.26795959 195.88380432 C-366.75065518 144.33510004 -353.48904255 99.19480921 -329 54 C-324.09544067 54 -323.69651224 54.84598713 -320.3125 58.1875 C-313.04380079 65.11019007 -305.06042804 71.03771174 -297 77 C-296.31131836 77.51353027 -295.62263672 78.02706055 -294.91308594 78.55615234 C-245.49795201 115.22241759 -181.50745949 139.06689659 -119.40649414 131.12475586 C-115.5745475 130.54312448 -111.78763789 129.8194066 -108 129 C-106.72125 128.73316406 -105.4425 128.46632813 -104.125 128.19140625 C-84.31870615 123.47062647 -66.45322686 114.20226583 -51 101 C-50.20207031 100.34773437 -49.40414063 99.69546875 -48.58203125 99.0234375 C-19.76754387 74.56089972 -6.30785378 36.12323716 0 0 Z " fill="#F76FCC" transform="translate(404,431)"/>
<path d="M0 0 C0.78487793 0.00021149 1.56975586 0.00042297 2.37841797 0.00064087 C26.42318049 0.064352 50.26139291 2.81734532 73.4375 9.375 C74.23800781 9.59381836 75.03851562 9.81263672 75.86328125 10.03808594 C138.94690685 27.3684759 195.13434869 63.32929151 231.4375 118.375 C234.73879379 124.97758758 230.21651649 135.1148142 228.07275391 141.72290039 C215.92203653 178.01028514 196.5240564 209.48804984 170.4375 237.375 C168.69883078 239.2833413 166.97436302 241.20364402 165.25 243.125 C164.51394531 243.94484375 163.77789063 244.7646875 163.01953125 245.609375 C162.49746094 246.19203125 161.97539063 246.7746875 161.4375 247.375 C159.05451714 244.4076551 157.16282833 241.2463106 155.27954102 237.94458008 C146.28863564 222.19381245 135.94555968 207.38335992 124.4375 193.375 C124.00743652 192.84197266 123.57737305 192.30894531 123.13427734 191.75976562 C116.51152598 183.574509 109.29334998 176.02990449 101.875 168.5625 C101.01277832 167.69101318 100.15055664 166.81952637 99.26220703 165.92163086 C93.2963591 159.9845898 87.02672247 154.60597268 80.4375 149.375 C79.37670984 148.50629927 78.31661789 147.63674374 77.2578125 146.765625 C39.99863273 117.17427643 -6.60640702 98.67582023 -54.60546875 103.83984375 C-75.42195153 106.6400872 -96.93585347 114.98054776 -112.84765625 128.87890625 C-114.5625 130.375 -114.5625 130.375 -116.5625 131.375 C-115.89376393 127.10475762 -114.43620732 123.47005775 -112.75 119.5 C-102.3288281 94.13201523 -99.83435494 64.49081471 -106.6875 37.8125 C-107.48778982 34.6685043 -107.9780558 32.56426557 -107.5625 29.375 C-82.50825662 4.82747165 -33.19911984 -0.08408332 0 0 Z " fill="#F96581" transform="translate(567.5625,242.625)"/>
<path d="M0 0 C26.28081076 8.46270673 51.51360769 20.94226688 74 37 C75.07894531 37.76981201 75.07894531 37.76981201 76.1796875 38.55517578 C85.56396365 45.28019407 94.60087015 52.06748848 103 60 C104.26661866 61.08825807 105.53740846 62.17168185 106.8125 63.25 C116.44688084 71.67520754 125.14123536 80.90396542 133 91 C133.78761719 91.97066406 134.57523438 92.94132812 135.38671875 93.94140625 C151.93089696 114.69305207 164.68582908 138.48319825 171.25 164.1875 C171.50869873 165.19756104 171.76739746 166.20762207 172.03393555 167.24829102 C181.00017537 203.7923749 173.07527333 241.17241777 154 273 C150.92122637 277.8714199 147.53871985 282.45523087 144 287 C143.03126953 288.30130859 143.03126953 288.30130859 142.04296875 289.62890625 C134.3285773 299.5952305 124.98159407 308.19642197 116 317 C115.05069016 313.72210203 115.12284559 311.26259047 115.62426758 307.87573242 C121.51074022 267.92755057 115.84219296 223.99589272 91.65625 190.73046875 C61.89778845 150.80264424 17.48946432 133.31206988 -30.4375 126.1875 C-33.29014202 125.77834766 -36.1439253 125.38477239 -39 125 C-36.52589579 81.48989156 -21.02997691 37.84379902 0 0 Z " fill="#F86CC1" transform="translate(290,113)"/>
<path d="M0 0 C0.64308105 0.32701904 1.28616211 0.65403809 1.94873047 0.9909668 C2.98102783 1.51339966 2.98102783 1.51339966 4.03417969 2.04638672 C23.22036453 12.04485144 40.15024124 25.76396285 55.69873047 40.6784668 C56.52244141 41.46092773 57.34615234 42.24338867 58.19482422 43.04956055 C63.3108732 48.02374335 67.86227803 53.33956317 72.28930664 58.93139648 C73.40933281 60.31974003 74.54931804 61.69197708 75.69604492 63.05834961 C81.21211863 69.66554738 86.15316386 76.4934408 90.88623047 83.6784668 C91.89459961 85.18280273 91.89459961 85.18280273 92.92333984 86.7175293 C97.21843387 93.19153665 101.09828875 99.7943477 104.69873047 106.6784668 C98.97866448 109.2722745 93.2095628 111.71152465 87.39135742 114.07617188 C54.1581752 127.64861538 19.65288619 146.03147265 -5.13525391 172.64770508 C-5.74175781 173.29852051 -6.34826172 173.94933594 -6.97314453 174.61987305 C-7.51551758 175.22645752 -8.05789063 175.83304199 -8.61669922 176.45800781 C-10.30126953 177.6784668 -10.30126953 177.6784668 -12.3581543 177.49755859 C-15.32705161 176.24606337 -17.19087374 174.17126494 -19.48876953 171.9284668 C-26.93165804 164.86446765 -35.04148799 158.74946663 -43.30126953 152.6784668 C-43.86426758 152.2635498 -44.42726563 151.84863281 -45.00732422 151.42114258 C-59.20330967 141.05055508 -74.53859817 132.1077842 -90.41308594 124.57543945 C-92.30248224 123.6778907 -94.18288349 122.76326168 -96.06298828 121.84643555 C-103.32736897 118.34428717 -110.63747872 115.28967472 -118.28759766 112.71899414 C-119.99036835 112.12216873 -121.65140935 111.40893924 -123.30126953 110.6784668 C-124.30126953 107.6784668 -124.30126953 107.6784668 -122.66845703 104.3347168 C-121.85064853 102.94163405 -121.01877322 101.5567548 -120.17626953 100.1784668 C-119.72614502 99.43089111 -119.27602051 98.68331543 -118.81225586 97.91308594 C-101.6771192 69.81844981 -80.51281763 42.86797264 -54.30126953 22.6784668 C-53.77259277 22.26274414 -53.24391602 21.84702148 -52.69921875 21.41870117 C-41.94535071 12.99530584 -30.38675449 6.03162413 -18.30126953 -0.3215332 C-17.65158203 -0.66571289 -17.00189453 -1.00989258 -16.33251953 -1.36450195 C-10.16954119 -4.351384 -5.93871299 -2.87835376 0 0 Z " fill="#FA6162" transform="translate(414.30126953125,3.321533203125)"/>
</svg>
