<?xml version="1.0" encoding="UTF-8"?>
<svg version="1.1" xmlns="http://www.w3.org/2000/svg" width="780" height="808">
<path d="M0 0 C1.29691365 0.64321055 2.58710881 1.30010398 3.87109375 1.96875 C4.56436768 2.32404785 5.2576416 2.6793457 5.97192383 3.04541016 C22.81429677 11.84392262 37.63856362 23.32685221 51.30859375 36.46875 C51.90462402 37.03754883 52.5006543 37.60634766 53.11474609 38.19238281 C62.01313072 46.72583498 69.9949793 55.5479937 77.30859375 65.46875 C77.71883789 66.01289551 78.12908203 66.55704102 78.55175781 67.11767578 C84.72382802 75.30556464 90.09527638 83.87735268 95.28686523 92.71728516 C95.76712158 93.53503418 96.24737793 94.3527832 96.7421875 95.1953125 C97.16556396 95.92314941 97.58894043 96.65098633 98.02514648 97.40087891 C99.34214071 99.52280036 100.78184706 101.4937458 102.30859375 103.46875 C103.47390625 102.97246094 104.63921875 102.47617188 105.83984375 101.96484375 C149.25626071 83.8248307 199.96389047 73.99594051 246.81201172 83.00341797 C248.52133939 83.32201552 250.23740261 83.60588841 251.95751953 83.85986328 C266.2234673 85.96724381 266.2234673 85.96724381 270.83203125 91.49609375 C272.54647243 94.63829478 273.6566986 97.90854373 274.66552734 101.33447266 C275.30590699 103.45983291 276.05856715 105.50452174 276.859375 107.57421875 C283.63246261 125.58712847 287.40586288 145.47983065 287.51171875 164.7265625 C287.51873306 165.5840358 287.52574738 166.44150909 287.53297424 167.32496643 C287.5503975 170.08128159 287.55682786 172.83738177 287.55859375 175.59375 C287.55960587 177.00752426 287.55960587 177.00752426 287.56063843 178.44985962 C287.5351112 200.88399751 284.44924954 221.64613229 279.30859375 243.46875 C280.93362631 244.28126628 282.5586825 245.0937353 284.18383789 245.90600586 C285.62091361 246.62479141 287.05758922 247.34437738 288.49389648 248.06469727 C292.12263015 249.88320154 295.75533592 251.69123873 299.40625 253.46484375 C322.82276231 264.88851425 343.3513455 279.61887926 362.30859375 297.46875 C363.01886719 298.12488281 363.72914063 298.78101563 364.4609375 299.45703125 C370.31366232 305.0464433 375.20995569 311.38745048 380.06933594 317.83691406 C381.15014931 319.26011275 382.26201282 320.65962438 383.37890625 322.0546875 C383.93320312 322.78945313 384.4875 323.52421875 385.05859375 324.28125 C385.5278125 324.88582031 385.99703125 325.49039062 386.48046875 326.11328125 C391.00803537 338.99121837 378.92372518 359.9508828 373.62109375 371.15625 C368.39864664 381.9150663 362.36406705 391.82521081 355.30859375 401.46875 C354.87305176 402.07106445 354.43750977 402.67337891 353.98876953 403.29394531 C348.74057433 410.50542153 343.00548563 417.18865584 336.90625 423.68359375 C334.58567177 426.17167237 332.3460104 428.70800981 330.12109375 431.28125 C326.47669447 435.39971748 322.50128867 438.924088 318.30859375 442.46875 C316.63819673 443.94370275 314.97152451 445.42288454 313.30859375 446.90625 C312.54546875 447.58558594 311.78234375 448.26492188 310.99609375 448.96484375 C310.43921875 449.46113281 309.88234375 449.95742188 309.30859375 450.46875 C310.56373947 453.90545853 311.99046186 456.6125297 314.18359375 459.53125 C345.38722268 503.17724454 364.81760603 556.57910806 363.30859375 610.46875 C363.29054688 611.61085938 363.2725 612.75296875 363.25390625 613.9296875 C363.18816406 615.37214844 363.18816406 615.37214844 363.12109375 616.84375 C363.06888672 618.03097656 363.06888672 618.03097656 363.015625 619.2421875 C361.07033919 625.36822569 354.27090296 628.64894667 349.05859375 631.78125 C347.86278687 632.50018433 347.86278687 632.50018433 346.64282227 633.23364258 C307.54531215 656.36147511 259.25236 664.16341254 214.30859375 659.46875 C214.32744629 660.05068115 214.34629883 660.6326123 214.36572266 661.23217773 C214.48932434 668.13825179 213.7632678 674.71733017 212.68359375 681.53125 C212.50610596 682.65740723 212.32861816 683.78356445 212.14575195 684.94384766 C204.97890025 728.60174192 189.18652821 769.18064215 158.30859375 801.46875 C157.64214844 802.231875 156.97570312 802.995 156.2890625 803.78125 C153.05039201 806.54082722 150.30667986 806.00350494 146.1953125 805.83984375 C100.66744887 801.4929623 58.70082745 778.75666083 24.30859375 749.46875 C23.25994117 748.60446486 22.21041742 747.74123595 21.16015625 746.87890625 C10.9147041 738.37840356 1.61182675 728.97843918 -7.69140625 719.46875 C-12.17644181 723.20820195 -16.38274904 727.08668013 -20.44140625 731.28125 C-25.87398726 736.78507797 -31.58176093 741.71852007 -37.69140625 746.46875 C-38.61348877 747.19747314 -38.61348877 747.19747314 -39.55419922 747.94091797 C-71.8526611 773.45458261 -108.54354014 793.40396728 -149.69140625 799.46875 C-150.67197998 799.654375 -150.67197998 799.654375 -151.67236328 799.84375 C-162.39110506 801.86189015 -162.39110506 801.86189015 -167.46484375 798.7890625 C-170.17270766 796.18370448 -172.40952383 793.4539011 -174.69140625 790.46875 C-175.56437962 789.42579389 -176.44210908 788.3868028 -177.32421875 787.3515625 C-211.61350835 746.35924209 -228.43405048 688.44403856 -227.69140625 635.46875 C-228.28928955 635.48252686 -228.88717285 635.49630371 -229.50317383 635.51049805 C-267.81234672 636.00406775 -307.66611159 622.84119658 -339.87597656 602.60595703 C-341.54855898 601.55823125 -343.24031064 600.54127352 -344.93359375 599.52734375 C-345.84367187 598.95113281 -346.75375 598.37492188 -347.69140625 597.78125 C-348.45453125 597.30300781 -349.21765625 596.82476563 -350.00390625 596.33203125 C-355.03056692 590.7817601 -352.93561852 578.62991408 -352.94140625 571.34375 C-352.94208099 570.58309235 -352.94275574 569.82243469 -352.94345093 569.03872681 C-352.92597825 556.62087614 -352.20449819 544.66070882 -349.69140625 532.46875 C-349.44197266 531.21360596 -349.44197266 531.21360596 -349.1875 529.93310547 C-343.97054527 504.27824753 -334.38996316 479.53166333 -321.34594727 456.84619141 C-319.26028605 453.35280274 -319.26028605 453.35280274 -318.92797852 449.42675781 C-320.23314869 446.07931144 -323.10811615 444.0336327 -325.75390625 441.71875 C-326.94887238 440.64298776 -328.14288534 439.56616576 -329.3359375 438.48828125 C-329.91553223 437.96830566 -330.49512695 437.44833008 -331.09228516 436.91259766 C-337.10664143 431.48223079 -342.34637684 425.62964716 -347.41015625 419.30859375 C-348.88733258 417.46971157 -350.38620165 415.64796177 -351.91015625 413.84765625 C-369.41064549 393.11204136 -381.86143861 368.89365 -390.19140625 343.15625 C-390.44696289 342.37386963 -390.70251953 341.59148926 -390.96582031 340.78540039 C-392.26105982 336.60228685 -393.3050424 332.87963954 -392.69140625 328.46875 C-382.15476484 308.67027071 -363.20686419 290.87616997 -345.39453125 277.72753906 C-343.73105694 276.49805604 -342.08613073 275.24658788 -340.44140625 273.9921875 C-324.75931382 262.2247858 -295.1320395 240.46875 -274.69140625 240.46875 C-274.92214844 239.83195313 -275.15289062 239.19515625 -275.390625 238.5390625 C-283.54164056 214.2471031 -286.97024863 187.03378772 -287.69140625 161.46875 C-287.72427734 160.30907715 -287.72427734 160.30907715 -287.7578125 159.12597656 C-288.37792611 132.74014246 -288.56333425 94.45448723 -273.47265625 71.625 C-270.65335782 69.79492909 -267.55101655 69.14817831 -264.31640625 68.40625 C-263.60323242 68.23633545 -262.89005859 68.0664209 -262.15527344 67.89135742 C-255.71477485 66.39608785 -249.25590383 65.26827214 -242.69140625 64.46875 C-241.33789062 64.30052734 -241.33789062 64.30052734 -239.95703125 64.12890625 C-195.67629406 59.56323702 -148.16255427 70.26542142 -108.69140625 90.46875 C-108.335625 89.4478125 -108.335625 89.4478125 -107.97265625 88.40625 C-106.41222751 84.82868166 -104.37028267 81.68895523 -102.19140625 78.46875 C-101.74998291 77.81302002 -101.30855957 77.15729004 -100.85375977 76.48168945 C-94.4292945 67.03689413 -87.50801331 58.11903265 -79.75390625 49.71875 C-77.94083531 47.74085442 -76.22101611 45.71678183 -74.50390625 43.65625 C-59.22778334 26.19278386 -39.95368476 12.94055705 -19.75390625 1.84375 C-18.96097168 1.39322266 -18.16803711 0.94269531 -17.35107422 0.47851562 C-10.80851991 -3.0200583 -6.96200009 -2.88794078 0 0 Z " fill="#B4D649" transform="translate(392.69140625,2.53125)"/>
<path d="M0 0 C7.35441045 2.71769616 14.13322438 6.05309587 20.9375 9.9375 C21.93313965 10.50380127 22.9287793 11.07010254 23.95458984 11.65356445 C80.19210493 44.09966305 133.15362217 96.03042067 150.74609375 160.16796875 C151.16817612 161.77757274 151.58639866 163.3881959 152 165 C152.17934082 165.67756348 152.35868164 166.35512695 152.54345703 167.05322266 C160.53877027 198.51839285 154.60155362 233.53848431 138.4777832 261.42138672 C130.68170106 274.39567234 120.64453101 285.38700793 110.0625 296.125 C109.4943457 296.70628662 108.92619141 297.28757324 108.34082031 297.88647461 C106.93263522 299.29742168 105.47042692 300.6540425 104 302 C103.34 302 102.68 302 102 302 C102.06058594 301.44876465 102.12117187 300.8975293 102.18359375 300.32958984 C105.10365016 273.08883281 105.73657274 246.01967303 96 220 C95.55785156 218.81148437 95.11570312 217.62296875 94.66015625 216.3984375 C82.47269021 185.94665256 57.67065323 163.0312114 28 150 C27.22785156 149.65984863 26.45570313 149.31969727 25.66015625 148.96923828 C13.71573032 143.78774631 1.70332697 139.83992646 -11 137 C-12.05960937 136.76240967 -12.05960937 136.76240967 -13.140625 136.52001953 C-22.73327851 134.4261344 -32.20512373 133.40811984 -42 133 C-42.22073413 125.28185203 -41.6489759 117.98465473 -40.375 110.375 C-40.19533691 109.29379883 -40.01567383 108.21259766 -39.83056641 107.09863281 C-34.25517245 74.71539423 -24.26518975 24.26518975 0 0 Z " fill="#A9DA4C" transform="translate(283,94)"/>
</svg>
