<?xml version="1.0" encoding="UTF-8"?>
<svg version="1.1" xmlns="http://www.w3.org/2000/svg" width="834" height="836">
<path d="M0 0 C1.96113092 1.02519328 3.91404007 2.06623465 5.859375 3.12109375 C6.88426025 3.66830078 7.90914551 4.21550781 8.96508789 4.77929688 C16.15801807 8.66433718 23.01509832 12.71381905 29.609375 17.55859375 C30.20733887 17.99107422 30.80530273 18.42355469 31.42138672 18.86914062 C52.18406542 33.91112102 72.06786707 51.04256737 87.609375 71.55859375 C88.81400391 73.09 88.81400391 73.09 90.04296875 74.65234375 C95.87383805 82.08305851 101.31135742 89.73953882 106.609375 97.55859375 C113.13532999 96.79521528 119.41600595 95.2214727 125.796875 93.68359375 C137.00507746 91.03843905 148.17728436 88.93869994 159.609375 87.55859375 C160.29878174 87.46433105 160.98818848 87.37006836 161.69848633 87.27294922 C170.84802652 86.15950784 180.0943031 86.31467486 189.296875 86.30859375 C190.67088974 86.30758163 190.67088974 86.30758163 192.07266235 86.30654907 C206.11469069 86.32297286 219.79676382 86.81469177 233.609375 89.55859375 C234.58471191 89.75146973 235.56004883 89.9443457 236.56494141 90.14306641 C260.86451149 95.08042925 260.86451149 95.08042925 264.69140625 100.515625 C265.29765497 101.78716491 265.87228375 103.07405839 266.421875 104.37109375 C266.74389893 105.09611084 267.06592285 105.82112793 267.39770508 106.56811523 C275.89238261 126.42520268 282.09558912 147.26490582 285.609375 168.55859375 C285.77018555 169.46061523 285.93099609 170.36263672 286.09667969 171.29199219 C288.72108585 186.40532501 288.86971455 201.45050008 288.859375 216.74609375 C288.85878082 217.72049408 288.85818665 218.69489441 288.85757446 219.69882202 C288.83198372 230.69346015 288.61135363 241.60323904 287.609375 252.55859375 C288.59292969 252.996875 289.57648437 253.43515625 290.58984375 253.88671875 C335.0942603 274.06996712 374.34967556 304.83142255 402.47167969 344.95214844 C403.43565218 346.31329414 404.45811337 347.63272322 405.4921875 348.94140625 C408.27221336 355.45405424 405.03932484 363.2326057 402.921875 369.62109375 C402.6527832 370.44689941 402.38369141 371.27270508 402.10644531 372.12353516 C401.28834545 374.6069503 400.45291113 377.08371449 399.609375 379.55859375 C399.37589355 380.24904785 399.14241211 380.93950195 398.90185547 381.65087891 C387.96723523 413.5481602 369.86320364 442.37393929 347.609375 467.55859375 C346.83980469 468.43902344 346.07023438 469.31945312 345.27734375 470.2265625 C339.95319571 476.24070521 334.34157426 481.93409761 328.609375 487.55859375 C330.00452589 492.17860161 331.88554618 496.45969266 333.88378906 500.83862305 C346.23459353 528.11760797 354.79301343 557.67590018 357.609375 587.55859375 C357.71894531 588.60144531 357.82851563 589.64429688 357.94140625 590.71875 C358.88946291 601.32434383 358.8830923 611.98196321 358.66308594 622.62011719 C358.62885408 624.49291109 358.61202276 626.36616115 358.61816406 628.23925781 C358.61318495 641.06046644 358.61318495 641.06046644 354.25 646.5 C350.852973 649.25469575 347.39745515 651.3996688 343.609375 653.55859375 C342.18119186 654.44013091 340.75549132 655.32570019 339.33203125 656.21484375 C300.35401273 680.08856419 255.36724959 694.02566663 209.609375 695.55859375 C209.51527344 696.63238281 209.42117188 697.70617187 209.32421875 698.8125 C208.59713933 704.55982967 206.88843149 709.97782333 205.171875 715.49609375 C204.81915527 716.63127441 204.46643555 717.76645508 204.10302734 718.93603516 C193.69074907 751.70368775 178.79131716 783.09141231 156.609375 809.55859375 C155.68293147 810.68825927 154.75715686 811.81847369 153.83203125 812.94921875 C151.57738777 815.68821353 149.26741327 818.37157967 146.92382812 821.03466797 C145.64050058 822.52250796 144.41299664 824.05792598 143.1875 825.59375 C140.04305209 829.2468586 137.49888695 832.06040276 132.75 833.3125 C128.95527087 833.45595927 125.35574276 833.08247737 121.609375 832.55859375 C120.28776367 832.39834717 120.28776367 832.39834717 118.93945312 832.23486328 C75.76339005 826.89222418 32.8142123 809.9082434 -1.99243164 783.67944336 C-3.4318807 782.60263301 -4.91005943 781.57813273 -6.390625 780.55859375 C-7.15761719 780.01847656 -7.92460937 779.47835937 -8.71484375 778.921875 C-13.43732708 778.28072033 -16.61285402 781.64501996 -20.265625 784.37109375 C-21.97954043 785.59557585 -23.69570976 786.816909 -25.4140625 788.03515625 C-26.2606543 788.64004883 -27.10724609 789.24494141 -27.97949219 789.86816406 C-33.57003367 793.78765669 -39.44804383 797.20606418 -45.390625 800.55859375 C-46.07995117 800.95111328 -46.76927734 801.34363281 -47.47949219 801.74804688 C-76.78039986 818.27810744 -109.04024871 828.49230812 -142.390625 832.55859375 C-143.4734375 832.77644531 -144.55625 832.99429688 -145.671875 833.21875 C-150.37059003 833.80608938 -154.28117124 833.93831013 -158.37939453 831.2578125 C-163.62936575 826.91230689 -168.04673397 821.78749559 -172.390625 816.55859375 C-172.97763184 815.8536377 -173.56463867 815.14868164 -174.16943359 814.42236328 C-178.11068532 809.60804231 -181.79645674 804.63574261 -185.390625 799.55859375 C-185.8954541 798.85009277 -186.4002832 798.1415918 -186.92041016 797.41162109 C-207.6984029 767.98891612 -223.06164219 734.15743462 -230.56445312 698.87255859 C-230.83708984 698.1089502 -231.10972656 697.3453418 -231.390625 696.55859375 C-234.3059076 695.58683288 -236.69785536 695.26108321 -239.74609375 694.98046875 C-276.86643529 691.35305585 -312.38372555 682.18935094 -345.390625 664.55859375 C-346.05545898 664.20684082 -346.72029297 663.85508789 -347.40527344 663.49267578 C-354.93509604 659.48265776 -362.20919535 655.20049262 -369.203125 650.30859375 C-369.78400879 649.90850098 -370.36489258 649.5084082 -370.96337891 649.09619141 C-375.16008393 646.07060156 -377.87051439 643.54506692 -378.77954102 638.32543945 C-379.62746733 630.42048357 -379.6336279 622.43910523 -379.640625 614.49609375 C-379.64129974 613.79983887 -379.64197449 613.10358398 -379.64266968 612.38623047 C-379.58300561 573.21091542 -370.12990704 535.99364616 -354.52929688 500.21484375 C-352.7347824 496.02866933 -351.05706188 491.79708976 -349.390625 487.55859375 C-350.40125 486.73359375 -351.411875 485.90859375 -352.453125 485.05859375 C-355.7838598 482.20082329 -358.63063462 479.13620435 -361.46484375 475.79296875 C-363.58254894 473.33591526 -365.79667819 470.98701442 -368.015625 468.62109375 C-383.29290563 451.8137668 -395.83460742 432.62682666 -406.390625 412.55859375 C-406.98375488 411.43952637 -406.98375488 411.43952637 -407.58886719 410.29785156 C-429.39759071 368.56553606 -429.39759071 368.56553606 -427.390625 350.55859375 C-425.80783402 347.44632212 -423.7663192 344.75746777 -421.640625 341.99609375 C-421.04717285 341.20452881 -420.4537207 340.41296387 -419.84228516 339.59741211 C-418.04955258 337.23088104 -416.22867382 334.89005113 -414.390625 332.55859375 C-413.65440918 331.62321777 -413.65440918 331.62321777 -412.90332031 330.66894531 C-400.79673018 315.51214563 -386.76424491 301.24070983 -371.08105469 289.80029297 C-369.33342879 288.51658047 -367.61530445 287.19950816 -365.8984375 285.875 C-348.56405307 272.64005865 -328.6974248 260.58725058 -308.390625 252.55859375 C-308.46045593 251.89409714 -308.53028687 251.22960052 -308.60223389 250.54496765 C-309.26793495 243.81209485 -309.56385879 237.15414959 -309.59375 230.390625 C-309.59945007 229.35330734 -309.60515015 228.31598969 -309.61102295 227.24723816 C-309.6204102 225.05977374 -309.62698172 222.87229558 -309.63085938 220.68481445 C-309.64046799 217.42437253 -309.67151244 214.1645889 -309.703125 210.90429688 C-309.89834132 172.2879877 -301.15343597 135.69133337 -285.390625 100.55859375 C-285.11057617 99.82970947 -284.83052734 99.1008252 -284.54199219 98.34985352 C-282.95442835 95.87997313 -281.61373713 95.67083655 -278.796875 94.9609375 C-277.85739014 94.71819092 -276.91790527 94.47544434 -275.94995117 94.2253418 C-274.94037354 93.98468994 -273.9307959 93.74403809 -272.890625 93.49609375 C-271.85848877 93.23932861 -270.82635254 92.98256348 -269.76293945 92.71801758 C-260.7178194 90.5210964 -251.62302889 88.74797092 -242.390625 87.55859375 C-241.71604248 87.46433105 -241.04145996 87.37006836 -240.34643555 87.27294922 C-203.36925899 82.77697495 -163.72808413 87.2969314 -128.390625 98.55859375 C-128.05442139 98.08663574 -127.71821777 97.61467773 -127.37182617 97.12841797 C-109.22955683 71.70891514 -89.51795428 46.5192724 -64.390625 27.55859375 C-63.60051025 26.94588623 -63.60051025 26.94588623 -62.79443359 26.32080078 C-52.22242005 18.12908018 -41.02175363 11.14453152 -29.390625 4.55859375 C-28.62411621 4.12256836 -27.85760742 3.68654297 -27.06787109 3.23730469 C-24.93976772 2.04429824 -22.79660722 0.88779896 -20.640625 -0.25390625 C-20.02195557 -0.59768311 -19.40328613 -0.94145996 -18.76586914 -1.2956543 C-11.7959913 -4.84545351 -6.61192624 -3.19337793 0 0 Z " fill="#949494" transform="translate(427.390625,3.44140625)"/>
<path d="M0 0 C1.96113092 1.02519328 3.91404007 2.06623465 5.859375 3.12109375 C6.88426025 3.66830078 7.90914551 4.21550781 8.96508789 4.77929688 C16.15801807 8.66433718 23.01509832 12.71381905 29.609375 17.55859375 C30.20733887 17.99107422 30.80530273 18.42355469 31.42138672 18.86914062 C52.18406542 33.91112102 72.06786707 51.04256737 87.609375 71.55859375 C88.81400391 73.09 88.81400391 73.09 90.04296875 74.65234375 C95.87383805 82.08305851 101.31135742 89.73953882 106.609375 97.55859375 C113.13532999 96.79521528 119.41600595 95.2214727 125.796875 93.68359375 C137.00507746 91.03843905 148.17728436 88.93869994 159.609375 87.55859375 C160.29878174 87.46433105 160.98818848 87.37006836 161.69848633 87.27294922 C170.84802652 86.15950784 180.0943031 86.31467486 189.296875 86.30859375 C190.67088974 86.30758163 190.67088974 86.30758163 192.07266235 86.30654907 C206.11469069 86.32297286 219.79676382 86.81469177 233.609375 89.55859375 C234.58471191 89.75146973 235.56004883 89.9443457 236.56494141 90.14306641 C260.86451149 95.08042925 260.86451149 95.08042925 264.69140625 100.515625 C265.29765497 101.78716491 265.87228375 103.07405839 266.421875 104.37109375 C266.74389893 105.09611084 267.06592285 105.82112793 267.39770508 106.56811523 C275.89238261 126.42520268 282.09558912 147.26490582 285.609375 168.55859375 C285.77018555 169.46061523 285.93099609 170.36263672 286.09667969 171.29199219 C288.71751389 186.38475493 288.86972638 201.40882559 288.859375 216.68359375 C288.85878082 217.65372406 288.85818665 218.62385437 288.85757446 219.62338257 C288.78679288 249.9028457 288.78679288 249.9028457 286.15380859 260.30859375 C285.49982251 263.0113452 285.03238945 265.72346069 284.56640625 268.46484375 C277.73166674 308.12923591 264.72485405 347.09653832 243.609375 381.55859375 C239.0879663 380.05992458 235.7014471 377.50090209 231.984375 374.62109375 C195.69501517 347.38377782 149.96977404 331.27482197 104.35717773 337.27661133 C83.42368803 340.67363881 58.07158916 349.42189989 42.609375 364.55859375 C40.80536995 367.14472655 39.22003733 369.84933986 37.609375 372.55859375 C30.65199285 383.56284897 23.31442814 393.87756721 14.609375 403.55859375 C13.71710296 404.57261323 12.82517579 405.58693628 11.93359375 406.6015625 C0.73286768 419.21814497 -11.73018617 429.69984524 -25.390625 439.55859375 C-26.28523438 440.21601563 -27.17984375 440.8734375 -28.1015625 441.55078125 C-60.8336786 465.14835332 -101.08904275 480.34952878 -141.82568359 474.19042969 C-175.27951153 468.44711169 -203.10857032 451.7791828 -227.390625 428.55859375 C-228.31746094 427.68460937 -229.24429688 426.810625 -230.19921875 425.91015625 C-237.35266656 418.99008334 -243.45402152 411.52756751 -249.390625 403.55859375 C-250.03862061 402.69379395 -250.03862061 402.69379395 -250.69970703 401.81152344 C-286.12159789 354.26914472 -309.33210701 290.00834153 -309.59375 230.48828125 C-309.59945007 229.44954865 -309.60515015 228.41081604 -309.61102295 227.34060669 C-309.62042004 225.14716592 -309.62698572 222.95371138 -309.63085938 220.76025391 C-309.64045665 217.49094112 -309.67148635 214.22228789 -309.703125 210.953125 C-309.89804961 172.31684305 -301.16206757 135.71057179 -285.390625 100.55859375 C-285.11057617 99.82970947 -284.83052734 99.1008252 -284.54199219 98.34985352 C-282.95442835 95.87997313 -281.61373713 95.67083655 -278.796875 94.9609375 C-277.85739014 94.71819092 -276.91790527 94.47544434 -275.94995117 94.2253418 C-274.94037354 93.98468994 -273.9307959 93.74403809 -272.890625 93.49609375 C-271.85848877 93.23932861 -270.82635254 92.98256348 -269.76293945 92.71801758 C-260.7178194 90.5210964 -251.62302889 88.74797092 -242.390625 87.55859375 C-241.71604248 87.46433105 -241.04145996 87.37006836 -240.34643555 87.27294922 C-203.36925899 82.77697495 -163.72808413 87.2969314 -128.390625 98.55859375 C-128.05442139 98.08663574 -127.71821777 97.61467773 -127.37182617 97.12841797 C-109.22955683 71.70891514 -89.51795428 46.5192724 -64.390625 27.55859375 C-63.86388184 27.15012207 -63.33713867 26.74165039 -62.79443359 26.32080078 C-52.22242005 18.12908018 -41.02175363 11.14453152 -29.390625 4.55859375 C-28.62411621 4.12256836 -27.85760742 3.68654297 -27.06787109 3.23730469 C-24.93976772 2.04429824 -22.79660722 0.88779896 -20.640625 -0.25390625 C-20.02195557 -0.59768311 -19.40328613 -0.94145996 -18.76586914 -1.2956543 C-11.7959913 -4.84545351 -6.61192624 -3.19337793 0 0 Z " fill="#A8A8A8" transform="translate(427.390625,3.44140625)"/>
<path d="M0 0 C1.37401474 -0.00101212 1.37401474 -0.00101212 2.77578735 -0.00204468 C16.81781569 0.01437911 30.49988882 0.50609802 44.3125 3.25 C45.77550537 3.53931396 45.77550537 3.53931396 47.26806641 3.83447266 C71.56763649 8.7718355 71.56763649 8.7718355 75.39453125 14.20703125 C76.00077997 15.47857116 76.57540875 16.76546464 77.125 18.0625 C77.44702393 18.78751709 77.76904785 19.51253418 78.10083008 20.25952148 C86.59550761 40.11660893 92.79871412 60.95631207 96.3125 82.25 C96.47331055 83.15202148 96.63412109 84.05404297 96.79980469 84.98339844 C99.43492328 100.15842156 99.57280442 115.26694974 99.5625 130.625 C99.56190582 131.61221039 99.56131165 132.59942078 99.56069946 133.61654663 C99.5007954 159.6851138 99.5007954 159.6851138 97.3125 166.25 C93.73743958 165.61842205 90.48990993 164.67117416 87.09375 163.39453125 C86.09013428 163.02231445 85.08651855 162.65009766 84.05249023 162.26660156 C82.98329346 161.86924805 81.91409668 161.47189453 80.8125 161.0625 C42.99576421 147.27916195 5.37289834 141.91841188 -34.6875 141.25 C-34.80230713 140.59330322 -34.91711426 139.93660645 -35.03540039 139.26000977 C-41.4545919 103.05602055 -52.47727154 69.65771072 -69.375 37 C-69.89715088 35.989375 -70.41930176 34.97875 -70.95727539 33.9375 C-74.13969795 27.89154691 -77.59553632 22.12914286 -81.37817383 16.43847656 C-82.6875 14.25 -82.6875 14.25 -82.6875 12.25 C-65.13875056 7.57453851 -47.71735564 3.59686482 -29.6875 1.25 C-28.94943115 1.146875 -28.2113623 1.04375 -27.45092773 0.9375 C-18.35672264 -0.17070473 -9.14690098 0.00604432 0 0 Z " fill="#C2C2C2" transform="translate(616.6875,89.75)"/>
<path d="M0 0 C0.68698975 0.24121582 1.37397949 0.48243164 2.08178711 0.73095703 C26.66880469 9.3022787 51.15962464 15.57573293 77 19 C77.89154785 19.11859375 78.7830957 19.2371875 79.70166016 19.359375 C97.07285096 21.55239402 114.52743882 21.20690772 132 21 C131.44028213 28.36067338 129.76727341 34.96744159 127.5625 42 C127.20978027 43.13066895 126.85706055 44.26133789 126.49365234 45.42626953 C116.04795601 78.17186912 101.17627232 109.53958374 79 136 C78.07355647 137.12966552 77.14778186 138.25987994 76.22265625 139.390625 C73.96801277 142.12961978 71.65803827 144.81298592 69.31445312 147.47607422 C68.03112558 148.96391421 66.80362164 150.49933223 65.578125 152.03515625 C62.43367709 155.68826485 59.88951195 158.50180901 55.140625 159.75390625 C51.34589587 159.89736552 47.74636776 159.52388362 44 159 C43.11892578 158.89316895 42.23785156 158.78633789 41.33007812 158.67626953 C-4.20021081 153.04231672 -47.37819499 134.41433415 -84 107 C-85.175625 106.18208984 -85.175625 106.18208984 -86.375 105.34765625 C-86.91125 104.90292969 -87.4475 104.45820312 -88 104 C-88 103.34 -88 102.68 -88 102 C-86.13568589 100.46827221 -84.26206593 99.04111085 -82.3125 97.625 C-75.60578031 92.61995767 -69.5395064 87.10008659 -63.46191406 81.36035156 C-61.39522807 79.43724296 -59.26054483 77.59597943 -57.125 75.75 C-53.74331795 72.7611086 -50.76372121 69.61137319 -47.85546875 66.1640625 C-45.76545117 63.726442 -43.57176592 61.404302 -41.375 59.0625 C-26.29466012 42.47412613 -14.01044411 23.56834471 -2.86328125 4.18359375 C-1 1 -1 1 0 0 Z " fill="#B0B0B0" transform="translate(505,677)"/>
<path d="M0 0 C1.96113092 1.02519328 3.91404007 2.06623465 5.859375 3.12109375 C6.88426025 3.66830078 7.90914551 4.21550781 8.96508789 4.77929688 C16.15801807 8.66433718 23.01509832 12.71381905 29.609375 17.55859375 C30.20733887 17.99107422 30.80530273 18.42355469 31.42138672 18.86914062 C52.18406542 33.91112102 72.06786707 51.04256737 87.609375 71.55859375 C88.41246094 72.57953125 89.21554687 73.60046875 90.04296875 74.65234375 C106.609375 95.75783784 106.609375 95.75783784 106.609375 99.55859375 C105.91714844 99.80391846 105.22492188 100.04924316 104.51171875 100.30200195 C63.25959608 115.01403615 22.34096926 134.61137598 -9.390625 165.55859375 C-13.36715816 163.91445023 -16.236812 161.14529409 -19.390625 158.30859375 C-50.71327808 130.95442161 -88.80369124 113.9147334 -127.390625 99.55859375 C-125.77119416 95.2866391 -123.63832524 91.79473349 -120.953125 88.12109375 C-120.51210449 87.51273682 -120.07108398 86.90437988 -119.61669922 86.27758789 C-103.88893646 64.73570501 -85.7576793 43.68182936 -64.390625 27.55859375 C-63.86388184 27.15012207 -63.33713867 26.74165039 -62.79443359 26.32080078 C-52.22242005 18.12908018 -41.02175363 11.14453152 -29.390625 4.55859375 C-28.62411621 4.12256836 -27.85760742 3.68654297 -27.06787109 3.23730469 C-24.93976772 2.04429824 -22.79660722 0.88779896 -20.640625 -0.25390625 C-19.71262085 -0.76957153 -19.71262085 -0.76957153 -18.76586914 -1.2956543 C-11.7959913 -4.84545351 -6.61192624 -3.19337793 0 0 Z " fill="#797979" transform="translate(427.390625,3.44140625)"/>
<path d="M0 0 C-0.63184109 3.09251351 -1.67665777 5.40688209 -3.30078125 8.10546875 C-3.77733154 8.91089111 -4.25388184 9.71631348 -4.74487305 10.54614258 C-5.26218994 11.41779053 -5.77950684 12.28943848 -6.3125 13.1875 C-25.79501051 46.75424819 -38.52993418 82.40220004 -45.53857422 120.51831055 C-46.00317092 123.0170542 -46.49625374 125.5088827 -47 128 C-48.36257935 128.05945801 -48.36257935 128.05945801 -49.75268555 128.12011719 C-92.81937128 130.08003173 -135.22021661 135.81388982 -175.01171875 153.39404297 C-177 154 -177 154 -180 153 C-180.82832725 145.96065189 -181.17197891 139.01497939 -181.203125 131.9296875 C-181.20882507 130.8909549 -181.21452515 129.85222229 -181.22039795 128.78201294 C-181.22979504 126.58857217 -181.23636072 124.39511763 -181.24023438 122.20166016 C-181.24983165 118.93234737 -181.28086135 115.66369414 -181.3125 112.39453125 C-181.50742461 73.7582493 -172.77144257 37.15197804 -157 2 C-156.71995117 1.27111572 -156.43990234 0.54223145 -156.15136719 -0.20874023 C-154.56380335 -2.67862062 -153.22311213 -2.8877572 -150.40625 -3.59765625 C-149.46676514 -3.84040283 -148.52728027 -4.08314941 -147.55932617 -4.33325195 C-146.54974854 -4.57390381 -145.5401709 -4.81455566 -144.5 -5.0625 C-142.95179565 -5.44764771 -142.95179565 -5.44764771 -141.37231445 -5.84057617 C-132.3271944 -8.03749735 -123.23240389 -9.81062283 -114 -11 C-113.32541748 -11.0942627 -112.65083496 -11.18852539 -111.95581055 -11.28564453 C-74.97863399 -15.7816188 -35.33745913 -11.26166235 0 0 Z " fill="#BABABA" transform="translate(299,102)"/>
</svg>
