<svg width="141" height="55" viewBox="0 0 141 55" fill="none" xmlns="http://www.w3.org/2000/svg">
<mask id="mask0_847_49" style="mask-type:luminance" maskUnits="userSpaceOnUse" x="0" y="0" width="38" height="55">
<path d="M37.8281 0H0V55H37.8281V0Z" fill="white"/>
</mask>
<g mask="url(#mask0_847_49)">
<path d="M35.0394 1.99109H35.5915L32.7296 8.70666L19.1351 40.9041H18.6918L2.28979 1.99109H6.80443L20.9511 35.4017L23.0976 30.1716L35.0394 1.99109Z" fill="black"/>
</g>
<mask id="mask1_847_49" style="mask-type:luminance" maskUnits="userSpaceOnUse" x="38" y="0" width="36" height="55">
<path d="M73.6649 0H38.3256V55H73.6649V0Z" fill="white"/>
</mask>
<g mask="url(#mask1_847_49)">
<path d="M67.7496 5.12917L58.2809 23.4016V40.9041H53.9335V24.5565L40.5023 1.99109H45.4564L53.9335 16.2466L58.0048 23.0166L67.0885 5.40526C67.49 4.63338 67.6076 4.00829 67.4424 3.53096C67.279 3.05461 66.9952 2.68714 66.5908 2.4305C66.1883 2.17385 65.8033 2.02803 65.4359 1.99109H71.6576C71.1803 2.02803 70.666 2.23899 70.1138 2.62493C69.5636 3.01184 69.0688 3.44347 68.6284 3.91982C68.187 4.39714 67.8944 4.80058 67.7496 5.12917Z" fill="black"/>
</g>
<mask id="mask2_847_49" style="mask-type:luminance" maskUnits="userSpaceOnUse" x="76" y="0" width="65" height="55">
<path d="M140.86 0H76.1537V55H140.86V0Z" fill="white"/>
</mask>
<g mask="url(#mask2_847_49)">
<path d="M94.1219 19.4391C96.0293 19.8805 97.5711 20.7243 98.7455 21.9706C99.9198 23.2178 100.901 24.6848 101.689 26.3725C102.477 28.0601 103.239 29.7672 103.976 31.4937C104.67 33.0705 105.384 34.5462 106.118 35.9228C106.854 37.2993 107.679 38.4018 108.595 39.2281C109.513 40.0525 110.576 40.4646 111.788 40.4646V40.9041C108.926 40.9041 106.66 40.5191 104.991 39.7491C103.32 38.9792 102.063 37.9623 101.219 36.6966C100.376 35.4289 99.7701 34.0436 99.4026 32.5397C99.0371 31.0339 98.7532 29.529 98.551 28.0251C98.3508 26.5222 98.0581 25.1378 97.6722 23.8721C97.2853 22.6044 96.6427 21.5856 95.7435 20.8157C94.8462 20.0457 93.5163 19.6608 91.7538 19.6608C88.9667 19.6608 86.7298 18.3387 85.0421 15.6944C84.0875 14.1546 83.372 12.2666 82.8956 10.0288V40.9041H78.5443V1.99109H88.2308C90.9469 1.99109 93.4152 2.28565 95.6346 2.8738C97.8559 3.46 99.6359 4.38645 100.974 5.65413C102.313 6.91986 102.984 8.59681 102.984 10.6859C102.984 12.4854 102.58 13.999 101.771 15.2278C100.964 16.4566 99.8906 17.4112 98.551 18.0898C97.2134 18.7693 95.7367 19.2194 94.1219 19.4391ZM98.6366 10.6859C98.6366 8.59681 98.1398 6.94708 97.1473 5.73579C96.1566 4.52547 94.8724 3.6729 93.2937 3.1771C91.7169 2.67937 90.0292 2.4305 88.2308 2.4305H82.8956V5.84467C82.8956 7.86186 83.1231 9.65936 83.58 11.2381C84.0389 12.8169 84.6542 14.2119 85.4271 15.4222C86.197 16.5577 87.1313 17.4832 88.2308 18.1987C89.3322 18.9142 90.5065 19.2719 91.7538 19.2719H92.1388C93.9013 19.163 95.4246 18.431 96.7078 17.0749C97.993 15.7168 98.6366 13.5868 98.6366 10.6859Z" fill="black"/>
<path d="M119.877 14.9789V40.4646H129.178C131.563 40.4646 133.516 39.8775 135.038 38.7031C136.563 37.5288 137.82 35.5475 138.81 32.7575L137.546 40.9041H115.638V2.04553H137.877V6.45129C136.591 5.20208 135.343 4.29313 134.132 3.7254C132.921 3.15766 131.554 2.79992 130.03 2.65215C128.507 2.50438 126.628 2.4305 124.391 2.4305H119.877V11.347C119.877 13.8435 120.298 15.7528 121.141 17.0749C121.985 18.395 123.252 19.2836 124.94 19.7424C126.629 20.2013 128.74 20.4307 131.27 20.4307V24.7781C130.463 23.8604 129.501 23.1362 128.381 22.6044C127.261 22.0736 126.123 21.5234 124.967 20.9557C123.813 20.386 122.778 19.6511 121.86 18.7508C120.942 17.8516 120.281 16.5946 119.877 14.9789Z" fill="black"/>
</g>
</svg>
