<svg width="71" height="75" viewBox="0 0 71 75" fill="none" xmlns="http://www.w3.org/2000/svg">
<path d="M7.4136e-08 63.75C7.4136e-08 70.125 4.615 75 10.65 75H60.35C66.385 75 71 70.125 71 63.75L71 39.1423L35.4998 39.1423L0 39.1423L7.4136e-08 63.75ZM60.35 7.5H53.25V3.75C53.25 1.5 51.83 0 49.7 0C47.57 0 46.15 1.5 46.15 3.75V7.5H24.85V3.75C24.85 1.5 23.43 0 21.3 0C19.17 0 17.75 1.5 17.75 3.75V7.5H10.65C4.615 7.5 7.4136e-08 12.375 7.4136e-08 18.75V26.25H71V18.75C71 12.375 66.385 7.5 60.35 7.5Z" fill="#EEEEEE" fill-opacity="0.37"/>
</svg>
