<svg width="319" height="273" viewBox="0 0 319 273" fill="none" xmlns="http://www.w3.org/2000/svg">
<g filter="url(#filter0_f_3371_508)">
<path d="M291 200.748C291 484.754 66.5191 555 -27.0139 555C-120.547 555 -250 -43.7706 -250 -327.776C-250 -611.781 -81.0304 -327.774 12.5026 -327.774C106.036 -327.774 291 -83.2569 291 200.748Z" fill="url(#paint0_linear_3371_508)"/>
<path d="M291 200.748C291 484.754 66.5191 555 -27.0139 555C-120.547 555 -250 -43.7706 -250 -327.776C-250 -611.781 -81.0304 -327.774 12.5026 -327.774C106.036 -327.774 291 -83.2569 291 200.748Z" fill="url(#paint1_linear_3371_508)"/>
</g>
<defs>
<filter id="filter0_f_3371_508" x="-435.379" y="-639.379" width="911.758" height="1379.76" filterUnits="userSpaceOnUse" color-interpolation-filters="sRGB">
<feFlood flood-opacity="0" result="BackgroundImageFix"/>
<feBlend mode="normal" in="SourceGraphic" in2="BackgroundImageFix" result="shape"/>
<feGaussianBlur stdDeviation="92.6895" result="effect1_foregroundBlur_3371_508"/>
</filter>
<linearGradient id="paint0_linear_3371_508" x1="-161.359" y1="-402.601" x2="389.444" y2="-160.597" gradientUnits="userSpaceOnUse">
<stop stop-color="#FF2E00"/>
<stop offset="1" stop-color="#1400FF" stop-opacity="0.2"/>
</linearGradient>
<linearGradient id="paint1_linear_3371_508" x1="-27.0139" y1="-473.474" x2="-27.0139" y2="555.001" gradientUnits="userSpaceOnUse">
<stop stop-color="#00FFA3" stop-opacity="0.58"/>
<stop offset="1" stop-color="#3300FF" stop-opacity="0.2"/>
</linearGradient>
</defs>
</svg>
