<svg width="15" height="24" viewBox="0 0 15 24" fill="none" xmlns="http://www.w3.org/2000/svg">
<path d="M7.26095 16.5672C9.45519 16.5672 11.2494 14.7264 11.2494 12.4766V4.09068C11.2494 1.8408 9.45519 0 7.26095 0C5.06671 0 3.27254 1.8408 3.27254 4.09068V12.4766C3.27254 14.7264 5.06671 16.5672 7.26095 16.5672ZM13.2943 8.28362C12.6172 8.28362 12.0683 8.83251 12.0683 9.50959V12.4766C12.0683 15.183 9.91171 17.3854 7.26095 17.3854C4.61019 17.3854 2.45441 15.1846 2.45441 12.4766V9.51082C2.45441 8.83306 1.90497 8.28362 1.2272 8.28362C0.549437 8.28362 0 8.83306 0 9.51082V12.4766C0 15.8301 2.22479 18.6585 5.25334 19.5441C5.69705 19.6739 6.03211 20.0627 6.03211 20.5249C6.03211 21.0502 5.60629 21.4761 5.08101 21.4761H4.50056C3.8228 21.4761 3.27336 22.0255 3.27336 22.7033C3.27336 23.381 3.8228 23.9305 4.50056 23.9305H10.023C10.7007 23.9305 11.2502 23.381 11.2502 22.7033C11.2502 22.0255 10.7007 21.4761 10.023 21.4761H9.4382C8.91305 21.4761 8.48734 21.0503 8.48734 20.5252C8.48734 20.0628 8.82259 19.674 9.26643 19.5445C12.2962 18.6599 14.5203 15.8301 14.5203 12.4766V9.5096C14.5203 8.83251 13.9714 8.28362 13.2943 8.28362Z" fill="#9974FF"/>
</svg>
