<svg width="354" height="95" viewBox="0 0 354 95" fill="none" xmlns="http://www.w3.org/2000/svg">
<mask id="mask0_1681_2391" style="mask-type:luminance" maskUnits="userSpaceOnUse" x="-1" y="0" width="66" height="95">
<path d="M64.3394 0H-1V95H64.3394V0Z" fill="white"/>
</mask>
<g mask="url(#mask0_1681_2391)">
<path d="M59.5235 3.43921H60.4773L55.5338 15.0388L32.0525 70.6525H31.2868L2.95605 3.43921H10.7541L35.1892 61.1485L38.8967 52.1146L59.5235 3.43921Z" fill="#8D8D8D"/>
</g>
<mask id="mask1_1681_2391" style="mask-type:luminance" maskUnits="userSpaceOnUse" x="97" y="0" width="62" height="95">
<path d="M158.499 0H97.458V95H158.499V0Z" fill="white"/>
</mask>
<g mask="url(#mask1_1681_2391)">
<path d="M148.281 8.85953L131.926 40.421V70.6525H124.417V42.4158L101.218 3.43921H109.775L124.417 28.0624L131.449 39.756L147.139 9.33641C147.833 8.00316 148.036 6.92346 147.751 6.09899C147.468 5.27621 146.978 4.64149 146.28 4.19819C145.584 3.75489 144.92 3.50302 144.285 3.43921H155.031C154.207 3.50302 153.319 3.86739 152.365 4.53402C151.415 5.20232 150.56 5.94787 149.799 6.77066C149.037 7.59512 148.531 8.29197 148.281 8.85953Z" fill="#8D8D8D"/>
</g>
<path d="M229.365 34.1375C232.659 34.8998 235.322 36.3574 237.351 38.51C239.379 40.6644 241.074 43.1982 242.435 46.1133C243.795 49.0283 245.112 51.9769 246.385 54.9591C247.584 57.6827 248.818 60.2316 250.086 62.6093C251.357 64.987 252.782 66.8912 254.364 68.3184C255.949 69.7424 257.786 70.4543 259.878 70.4543V71.2133C254.935 71.2133 251.021 70.5484 248.138 69.2185C245.253 67.8886 243.082 66.1322 241.623 63.9459C240.167 61.7563 239.121 59.3635 238.486 56.7658C237.855 54.1648 237.364 51.5655 237.015 48.9678C236.669 46.3719 236.164 43.9807 235.497 41.7945C234.829 39.6048 233.719 37.8451 232.166 36.5152C230.616 35.1853 228.319 34.5204 225.274 34.5204C220.46 34.5204 216.597 32.2367 213.681 27.6694C212.033 25.0096 210.797 21.7487 209.974 17.8833V71.2133H202.458V4H219.189C223.881 4 228.144 4.50878 231.978 5.52467C235.814 6.53721 238.889 8.13744 241.2 10.3271C243.513 12.5133 244.672 15.4099 244.672 19.0184C244.672 22.1265 243.973 24.7409 242.576 26.8634C241.183 28.9859 239.329 30.6348 237.015 31.8068C234.705 32.9806 232.154 33.758 229.365 34.1375ZM237.163 19.0184C237.163 15.4099 236.305 12.5603 234.59 10.4681C232.879 8.37756 230.661 6.90494 227.934 6.04857C225.211 5.18884 222.296 4.75898 219.189 4.75898H209.974V10.6562C209.974 14.1404 210.367 17.2452 211.156 19.9721C211.949 22.6991 213.012 25.1087 214.346 27.1992C215.676 29.1605 217.29 30.759 219.189 31.9949C221.092 33.2308 223.12 33.8487 225.274 33.8487H225.939C228.984 33.6606 231.615 32.3962 233.831 30.0538C236.051 27.708 237.163 24.029 237.163 19.0184Z" fill="#8D8D8D"/>
<path d="M320.779 22.3395V66.3603H336.845C340.964 66.3603 344.338 65.3461 346.967 63.3177C349.6 61.2892 351.771 57.8671 353.482 53.0479L351.299 67.1193H313.458V0H351.87V7.60994C349.649 5.45222 347.493 3.88221 345.402 2.90158C343.31 1.92096 340.949 1.30303 338.316 1.04779C335.687 0.792562 332.441 0.664946 328.577 0.664946H320.779V16.0662C320.779 20.3783 321.506 23.6761 322.962 25.9598C324.421 28.2401 326.609 29.7748 329.524 30.5674C332.443 31.3599 336.088 31.7562 340.459 31.7562V39.2654C339.065 37.6803 337.403 36.4293 335.468 35.5108C333.534 34.594 331.568 33.6436 329.571 32.663C327.578 31.679 325.79 30.4095 324.205 28.8546C322.619 27.3014 321.478 25.1303 320.779 22.3395Z" fill="#8D8D8D"/>
</svg>
