<svg width="60" height="60" viewBox="0 0 60 60" fill="none" xmlns="http://www.w3.org/2000/svg">
<path d="M48.7498 30C51.0748 30 53.1998 30.7 54.9998 31.9V20C54.9998 17.25 52.7498 15 49.9998 15H34.2748L31.6248 12.35L35.1498 8.82499L33.3748 7.04999L24.5498 15.875L26.3248 17.65L29.8498 14.125L32.4998 16.775V22.5C32.4998 25.25 30.2498 27.5 27.4998 27.5H26.1498C28.6247 30.2431 29.9962 33.8054 29.9998 37.5C29.9998 38.35 29.8998 39.175 29.7748 40H37.6248C38.2498 34.375 42.9748 30 48.7498 30Z" fill="#9494A9"/>
<path d="M48.75 32.5C43.925 32.5 40 36.425 40 41.25C40 46.075 43.925 50 48.75 50C53.575 50 57.5 46.075 57.5 41.25C57.5 36.425 53.575 32.5 48.75 32.5ZM48.75 45C46.675 45 45 43.325 45 41.25C45 39.175 46.675 37.5 48.75 37.5C50.825 37.5 52.5 39.175 52.5 41.25C52.5 43.325 50.825 45 48.75 45ZM10 22.5H22.5C22.5 19.75 20.25 17.5 17.5 17.5H10C8.625 17.5 7.5 18.625 7.5 20C7.5 21.375 8.625 22.5 10 22.5ZM24.575 34.55L24.125 33.375L26.45 32.5C25.2956 29.8613 23.2519 27.7114 20.675 26.425L19.675 28.65L18.525 28.125L19.525 25.875C18.15 25.325 16.6 25 15 25C13.675 25 12.4 25.275 11.2 25.65L12.05 27.925L10.875 28.375L10 26.05C7.36133 27.2044 5.21142 29.2481 3.925 31.825L6.15 32.825L5.625 33.975L3.375 32.975C2.825 34.35 2.5 35.9 2.5 37.5C2.5 38.825 2.775 40.1 3.15 41.3L5.425 40.45L5.875 41.625L3.55 42.5C4.70438 45.1387 6.74812 47.2886 9.325 48.575L10.325 46.35L11.475 46.875L10.475 49.125C11.85 49.675 13.4 50 15 50C16.325 50 17.6 49.725 18.8 49.35L17.95 47.075L19.125 46.625L20 48.95C22.6387 47.7956 24.7886 45.7519 26.075 43.175L23.85 42.175L24.375 41.025L26.625 42.025C27.175 40.65 27.5 39.1 27.5 37.5C27.5 36.175 27.225 34.9 26.85 33.7L24.575 34.55ZM17.875 44.425C14.05 46 9.65 44.2 8.075 40.375C6.5 36.55 8.3 32.15 12.125 30.575C15.95 29 20.35 30.8 21.925 34.625C23.525 38.45 21.7 42.85 17.875 44.425Z" fill="#9494A9"/>
</svg>
