<svg width="50" height="50" viewBox="0 0 50 50" fill="none" xmlns="http://www.w3.org/2000/svg">
<path d="M21.5286 20.9643L25.1964 31.5179L22.4536 39.0179H42.0464L39.3036 31.5179L42.975 20.9643C43.4821 19.5071 42.3464 18 40.7429 18H23.7571C22.15 18 21.0214 19.5071 21.5286 20.9643ZM32.25 10.9893V2V10.9893ZM29.5536 4.69643H34.9464H29.5536ZM39.2607 18C39.2607 16.1406 38.5221 14.3574 37.2073 13.0427C35.8926 11.7279 34.1094 10.9893 32.25 10.9893C30.3906 10.9893 28.6074 11.7279 27.2927 13.0427C25.9779 14.3574 25.2393 16.1406 25.2393 18M17.4214 41.1643C17.85 39.8821 19.0464 39.0214 20.3964 39.0214H44.1036C45.4536 39.0214 46.6536 39.8821 47.0786 41.1643L49.5 48.4286H15L17.4214 41.1643Z" fill="#CECED3"/>
<path d="M32.25 10.9893V2M32.25 10.9893C34.1094 10.9893 35.8926 11.7279 37.2073 13.0427C38.5221 14.3574 39.2607 16.1406 39.2607 18M32.25 10.9893C30.3906 10.9893 28.6074 11.7279 27.2927 13.0427C25.9779 14.3574 25.2393 16.1406 25.2393 18M29.5536 4.69643H34.9464M21.5286 20.9643L25.1964 31.5179L22.4536 39.0179H42.0464L39.3036 31.5179L42.975 20.9643C43.4821 19.5071 42.3464 18 40.7429 18H23.7571C22.15 18 21.0214 19.5071 21.5286 20.9643ZM17.4214 41.1643C17.85 39.8821 19.0464 39.0214 20.3964 39.0214H44.1036C45.4536 39.0214 46.6536 39.8821 47.0786 41.1643L49.5 48.4286H15L17.4214 41.1643Z" stroke="#A8A5B2" stroke-linecap="round" stroke-linejoin="round"/>
</svg>
