<svg width="39" height="45" viewBox="0 0 39 45" fill="none" xmlns="http://www.w3.org/2000/svg">
<path d="M25.3427 8.43626C28.5718 8.43626 31.1917 6.54689 31.1917 4.21813C31.1917 1.88937 28.5718 0 25.3427 0C22.1135 0 19.4937 1.88937 19.4937 4.21813C19.4937 6.54689 22.1135 8.43626 25.3427 8.43626ZM36.8579 21.5388L34.0187 20.5019L32.8367 17.9183C31.0455 13.9989 26.0494 11.2571 20.3832 11.2484C15.9964 11.2396 13.5715 12.1359 9.01418 13.4629C6.38212 14.2274 4.2253 15.6774 2.95802 17.5228L2.14159 18.718C1.19113 20.1064 1.95881 21.7937 3.87192 22.4879C5.77285 23.1822 8.08809 22.6197 9.05074 21.2313L9.86716 20.0361C10.2937 19.421 11.0004 18.9377 11.8778 18.6828L15.1435 17.7337L13.2913 23.0679C12.6576 24.8958 13.34 26.8379 15.1069 28.2351L22.406 33.9823C23.2833 34.6766 23.9048 35.5114 24.2216 36.4165L26.4515 42.858C26.9755 44.3607 29.0958 45.2834 31.1795 44.9055C33.2632 44.5277 34.5427 42.9986 34.0187 41.4959L31.3135 33.6748C30.9967 32.7696 30.3753 31.926 29.4979 31.2405L23.9535 26.873L26.0494 20.8358L26.7196 22.2858C27.3655 23.7006 28.7546 24.8694 30.5824 25.5373L33.4216 26.5742C35.3225 27.2685 37.6378 26.706 38.6004 25.3176C39.5387 23.9379 38.771 22.2331 36.8579 21.5388ZM8.96544 33.9032C8.5755 34.615 7.9906 35.2566 7.23511 35.7926L1.14239 40.1953C-0.380795 41.2938 -0.380795 43.0777 1.14239 44.1761C2.66557 45.2746 5.12702 45.2746 6.6502 44.1761L13.8884 38.9562C14.6317 38.4202 15.2166 37.7786 15.6187 37.0668L17.2637 34.0966C10.5252 28.7975 12.548 30.4233 11.4878 29.3775L8.96544 33.9032Z" fill="#A09CAB"/>
</svg>
