<svg width="35" height="40" viewBox="0 0 35 40" fill="none" xmlns="http://www.w3.org/2000/svg">
<path d="M30 28.5714H25V40H20V28.5714H14.7L10.85 32.2476L16.775 36.7429L13.225 39.4476L7.325 34.9333C6.45 34.2857 5.95 33.3905 5.875 32.4571C5.8 31.5238 6.175 30.5905 6.95 29.8667L8.3 28.5714H5L10 20.9524V15.2381C8.45 16.1333 7.2 17.2762 6.325 18.5905C5.45 19.9238 5 21.3714 5 22.8571H0C0 19.3209 1.84374 15.9295 5.12563 13.4291C8.40752 10.9286 12.8587 9.52381 17.5 9.52381C20.825 9.52381 24 8.51429 26.35 6.74286C28.675 4.95238 30 2.53333 30 0H35C35 2.51429 34.05 4.99048 32.275 7.10476C30.5079 9.23352 27.9856 10.9374 25 12.019V20.9524L30 28.5714ZM22.5 3.80952C22.5 4.57143 22.2 5.29524 21.65 5.92381C21.1 6.55238 20.325 7.04762 19.425 7.33333C18.5097 7.62031 17.5032 7.69386 16.533 7.54466C15.5628 7.39547 14.6725 7.03024 13.975 6.49524C13.275 5.9619 12.8 5.29524 12.6 4.55238C12.4 3.80952 12.5 3.04762 12.875 2.3619C13.25 1.65714 13.9 1.06667 14.725 0.647619C15.55 0.228571 16.5 0 17.5 0C18.825 0 20.1 0.4 21.025 1.12381C21.975 1.82857 22.5 2.8 22.5 3.80952Z" fill="#A8A5B2"/>
</svg>
