<svg width="39" height="46" viewBox="0 0 39 46" fill="none" xmlns="http://www.w3.org/2000/svg">
<path d="M3.69965 0C1.12888 2.9943 -0.137382 6.93277 0.0118101 10.7115C0.187111 15.1251 2.24036 19.293 6.44571 21.5971L6.91194 21.8531V22.4265C6.91194 27.0347 9.0659 32.6772 11.8073 37.2956C13.1687 39.5997 14.6792 41.6581 16.0966 43.2146C17.3927 44.6278 18.6235 45.5904 19.5 46C20.3765 45.5904 21.598 44.6278 22.8941 43.2044C24.3114 41.6478 25.822 39.5895 27.1927 37.2854C29.9248 32.667 32.0881 27.0347 32.0881 22.4265V21.8531L32.5543 21.5971C36.7596 19.293 38.811 15.1251 38.9882 10.7115C39.1374 6.93277 37.8693 2.9943 35.305 0C35.3889 2.92364 35.5754 5.21238 35.2491 7.22974C34.8295 9.72841 33.4308 11.715 30.3164 13.4252L29.8595 13.671L29.4399 13.333C29.2441 13.1692 29.0483 13.0258 28.8525 12.8722C28.5448 13.589 28.1158 14.2649 27.5564 14.8896C26.512 16.0263 25.0015 16.0058 23.8545 15.504C22.7076 14.992 21.6446 14.0294 21.6446 12.5957V12.2168L21.8871 11.9403C22.4465 11.3259 22.8848 10.7934 23.2485 10.2814C20.7961 9.69769 18.2132 9.69769 15.7516 10.2814C16.1152 10.7934 16.5535 11.3259 17.1129 11.9403L17.3554 12.2168V12.5957C17.3554 14.0294 16.2924 14.992 15.1455 15.504C13.9986 16.0058 12.488 16.0263 11.4436 14.8896C10.8842 14.2649 10.4552 13.589 10.1475 12.8722C9.95172 13.0156 9.75591 13.1692 9.56009 13.333L9.14049 13.671L8.68359 13.4252C5.56921 11.715 4.16867 9.72841 3.7556 7.22974C3.42178 5.21238 3.612 2.92364 3.69965 0ZM11.9192 5.39773C11.5742 6.43713 11.2945 7.52671 11.2012 8.59172C11.024 10.4555 11.3411 12.1656 12.6372 13.5788C13.0848 14.0806 13.8121 14.1011 14.5301 13.7836C15.0522 13.5583 15.4252 13.1385 15.5837 12.8415C14.269 11.3362 13.495 10.0663 12.9449 8.65316C12.5719 7.7008 12.2642 6.61532 11.9192 5.39773ZM27.0808 5.39773C26.7358 6.61224 26.4281 7.7008 26.0551 8.65316C25.505 10.0663 24.7311 11.3362 23.4163 12.8415C23.5748 13.1385 23.9478 13.5583 24.47 13.7836C25.1879 14.1011 25.9153 14.0806 26.3628 13.5788C27.6589 12.1656 27.976 10.4555 27.7988 8.59172C27.7056 7.52671 27.4258 6.43713 27.0808 5.39773ZM10.2874 16.5076L11.3038 18.74C12.3388 21.0134 14.2223 23.3789 16.2737 25.0583L14.241 19.4875L15.8075 18.8117L18.6701 26.6763L18.8473 26.7685V26.8606H20.1527V26.7685L20.3299 26.6763L23.1925 18.8117L24.759 19.4875L22.7263 25.0583C24.7777 23.3789 26.6612 21.0134 27.6962 18.74L28.7126 16.5076L30.7826 25.5908V25.7035C30.7826 26.3384 30.5402 26.9426 30.1952 27.3829C29.8409 27.8335 29.3933 28.1509 28.8991 28.4069C27.92 28.919 26.7265 29.175 25.533 29.2876C25.3371 29.3081 25.1507 29.3183 24.9642 29.3286L23.379 32.8001C24.2835 32.4314 25.3465 31.9706 26.6519 31.3972L27.7988 30.8954V32.2573C27.7988 34.3566 26.5307 36.4866 24.9455 38.2378C23.351 39.9786 21.4115 41.3713 19.5 41.3713C17.5885 41.3713 15.649 39.9786 14.0545 38.2378C12.4693 36.4866 11.2012 34.3566 11.2012 32.2573V30.8954L12.3481 31.3972C13.6535 31.9706 14.7165 32.4314 15.621 32.8001L14.0359 29.3286C13.8494 29.3183 13.6629 29.3081 13.4671 29.2876C12.2735 29.175 11.08 28.919 10.1009 28.4069C9.60672 28.1509 9.15914 27.8335 8.80481 27.3829C8.4598 26.9426 8.21737 26.3384 8.21737 25.7035V25.5908L10.2874 16.5076ZM10.8748 21.5254L9.9051 25.7752C9.91443 25.9083 9.95172 26.0312 10.0729 26.1745C10.2128 26.3589 10.4646 26.5637 10.8096 26.7378C11.5089 27.0962 12.5533 27.3522 13.5976 27.4443C14.6046 27.5365 15.6024 27.4955 16.3297 27.3522C14.2317 25.898 12.2828 23.809 10.8748 21.5254ZM28.1252 21.5254C26.7172 23.809 24.7683 25.898 22.6703 27.3522C23.3976 27.4955 24.3954 27.5365 25.4024 27.4443C26.4468 27.3522 27.4911 27.0962 28.1904 26.7378C28.5354 26.5637 28.7872 26.3589 28.9271 26.1745C29.0483 26.0312 29.0856 25.9083 29.0949 25.7752L28.1252 21.5254ZM18.2039 28.7039L16.1525 29.8304L19.5 37.1932L22.8475 29.8304L20.7961 28.7039H18.2039ZM13.2339 33.7627C13.6349 34.7867 14.3529 35.9439 15.248 36.927C16.3017 38.0841 17.5792 38.9853 18.6049 39.3437L16.684 35.1349C15.6956 34.8175 14.586 34.3566 13.2339 33.7627ZM25.7661 33.7627C24.414 34.3566 23.3044 34.8175 22.316 35.1349L20.3952 39.3437C21.4209 38.9853 22.6983 38.0841 23.752 36.927C24.6471 35.9439 25.3651 34.7867 25.7661 33.7627Z" fill="#A0A1A9"/>
</svg>
