<svg width="347" height="295" viewBox="0 0 347 295" fill="none" xmlns="http://www.w3.org/2000/svg">
<mask id="mask0_835_250" style="mask-type:luminance" maskUnits="userSpaceOnUse" x="0" y="0" width="347" height="295">
<path d="M346.667 0H0V294.667H346.667V0Z" fill="white"/>
</mask>
<g mask="url(#mask0_835_250)">
<path d="M96.2655 104.147C106.484 106.511 114.745 111.032 121.036 117.709C127.328 124.392 132.583 132.251 136.807 141.293C141.026 150.334 145.109 159.48 149.057 168.73C152.776 177.178 156.604 185.084 160.536 192.459C164.479 199.834 168.901 205.741 173.807 210.168C178.724 214.584 184.422 216.793 190.911 216.793V219.147C175.578 219.147 163.437 217.084 154.495 212.959C145.547 208.834 138.812 203.386 134.286 196.605C129.771 189.814 126.526 182.392 124.557 174.334C122.599 166.267 121.078 158.204 119.995 150.147C118.922 142.095 117.354 134.678 115.286 127.897C113.213 121.105 109.771 115.647 104.953 111.522C100.146 107.397 93.0207 105.334 83.578 105.334C68.6457 105.334 56.6613 98.2511 47.6196 84.0844C42.505 75.8344 38.6717 65.7198 36.1196 53.7302V219.147H12.8071V10.6677H64.703C79.255 10.6677 92.479 12.2458 104.37 15.3969C116.271 18.5375 125.807 23.5011 132.974 30.2927C140.151 37.074 143.745 46.0583 143.745 57.2511C143.745 66.8917 141.578 75.0011 137.245 81.5844C132.922 88.1677 127.172 93.2823 119.995 96.9177C112.828 100.558 104.917 102.97 96.2655 104.147ZM120.453 57.2511C120.453 46.0583 117.792 37.2198 112.474 30.7302C107.167 24.2459 100.286 19.6781 91.828 17.0219C83.3801 14.3552 74.3384 13.0219 64.703 13.0219H36.1196V31.3136C36.1196 42.1208 37.3384 51.7511 39.7863 60.2094C42.2446 68.6677 45.5415 76.1417 49.6821 82.6261C53.8071 88.7094 58.8123 93.6677 64.703 97.5011C70.604 101.334 76.8957 103.251 83.578 103.251H85.6405C95.0832 102.668 103.245 98.7458 110.12 91.4802C117.005 84.2042 120.453 72.7927 120.453 57.2511Z" fill="black"/>
<path d="M234.249 80.2509V216.793H284.083C296.859 216.793 307.322 213.647 315.479 207.355C323.645 201.063 330.38 190.449 335.687 175.501L328.916 219.147H211.541V10.9592H330.687V34.5634C323.796 27.8707 317.109 23.0009 310.624 19.9592C304.135 16.9176 296.812 15.0009 288.645 14.2092C280.489 13.4176 270.421 13.0217 258.437 13.0217H234.249V60.7926C234.249 74.1676 236.505 84.3967 241.02 91.4801C245.546 98.553 252.333 103.313 261.374 105.772C270.426 108.23 281.734 109.459 295.291 109.459V132.751C290.968 127.834 285.812 123.954 279.812 121.105C273.812 118.261 267.713 115.313 261.52 112.272C255.338 109.22 249.791 105.282 244.874 100.459C239.958 95.6415 236.416 88.9072 234.249 80.2509Z" fill="black"/>
</g>
</svg>
