<svg width="190" height="295" viewBox="0 0 190 295" fill="none" xmlns="http://www.w3.org/2000/svg">
<mask id="mask0_835_241" style="mask-type:luminance" maskUnits="userSpaceOnUse" x="0" y="0" width="190" height="295">
<path d="M189.333 0H0V294.667H189.333V0Z" fill="white"/>
</mask>
<g mask="url(#mask0_835_241)">
<path d="M157.641 27.4802L106.912 125.376V219.147H83.62V131.564L11.6616 10.6677H38.2033L83.62 87.0427L105.432 123.314L154.099 28.9594C156.25 24.824 156.88 21.475 155.995 18.9177C155.12 16.3656 153.599 14.3969 151.432 13.0219C149.276 11.6469 147.214 10.8656 145.245 10.6677H178.578C176.021 10.8656 173.266 11.9958 170.307 14.0636C167.36 16.1365 164.708 18.449 162.349 21.0011C159.985 23.5584 158.417 25.7198 157.641 27.4802Z" fill="black"/>
</g>
</svg>
