<svg width="23" height="22" viewBox="0 0 23 22" fill="none" xmlns="http://www.w3.org/2000/svg">
<path d="M1.27778 12.2222H8.94444C9.28333 12.2222 9.60834 12.0935 9.84797 11.8642C10.0876 11.635 10.2222 11.3242 10.2222 11V1.22222C10.2222 0.898069 10.0876 0.587192 9.84797 0.357981C9.60834 0.128769 9.28333 0 8.94444 0H1.27778C0.93889 0 0.613882 0.128769 0.374252 0.357981C0.134623 0.587192 0 0.898069 0 1.22222V11C0 11.3242 0.134623 11.635 0.374252 11.8642C0.613882 12.0935 0.93889 12.2222 1.27778 12.2222ZM0 20.7778C0 21.1019 0.134623 21.4128 0.374252 21.642C0.613882 21.8712 0.93889 22 1.27778 22H8.94444C9.28333 22 9.60834 21.8712 9.84797 21.642C10.0876 21.4128 10.2222 21.1019 10.2222 20.7778V15.8889C10.2222 15.5647 10.0876 15.2539 9.84797 15.0246C9.60834 14.7954 9.28333 14.6667 8.94444 14.6667H1.27778C0.93889 14.6667 0.613882 14.7954 0.374252 15.0246C0.134623 15.2539 0 15.5647 0 15.8889V20.7778ZM12.7778 20.7778C12.7778 21.1019 12.9124 21.4128 13.152 21.642C13.3917 21.8712 13.7167 22 14.0556 22H21.7222C22.0611 22 22.3861 21.8712 22.6257 21.642C22.8654 21.4128 23 21.1019 23 20.7778V12.2222C23 11.8981 22.8654 11.5872 22.6257 11.358C22.3861 11.1288 22.0611 11 21.7222 11H14.0556C13.7167 11 13.3917 11.1288 13.152 11.358C12.9124 11.5872 12.7778 11.8981 12.7778 12.2222V20.7778ZM14.0556 8.55556H21.7222C22.0611 8.55556 22.3861 8.42679 22.6257 8.19757C22.8654 7.96836 23 7.65749 23 7.33333V1.22222C23 0.898069 22.8654 0.587192 22.6257 0.357981C22.3861 0.128769 22.0611 0 21.7222 0H14.0556C13.7167 0 13.3917 0.128769 13.152 0.357981C12.9124 0.587192 12.7778 0.898069 12.7778 1.22222V7.33333C12.7778 7.65749 12.9124 7.96836 13.152 8.19757C13.3917 8.42679 13.7167 8.55556 14.0556 8.55556Z" fill="#525252"/>
</svg>
