<svg width="39" height="23" viewBox="0 0 39 23" fill="none" xmlns="http://www.w3.org/2000/svg">
<path d="M27.5356 3.63874C29.6249 3.63874 31.5928 4.45561 33.0728 5.93836C34.5509 7.42292 35.3689 9.39505 35.3689 11.4982C35.3689 13.6013 34.5527 15.5716 33.0691 17.058C31.5946 18.5407 29.6267 19.3613 27.5319 19.3613C25.4371 19.3613 23.4729 18.5444 21.9911 17.058L19.4954 14.6565L16.9653 17.0907C16.2422 17.8149 15.3834 18.3883 14.4383 18.778C13.4933 19.1676 12.4807 19.3659 11.4589 19.3613C10.4294 19.3647 9.4095 19.1626 8.45856 18.7669C7.50762 18.3712 6.64466 17.7897 5.91991 17.0562C4.44174 15.5771 3.62558 13.6013 3.62558 11.5018C3.62558 9.40233 4.44174 7.43201 5.92354 5.942C6.64943 5.2107 7.5124 4.6307 8.46273 4.23541C9.41305 3.84011 10.432 3.63733 11.4608 3.63874C13.5538 3.63874 15.5216 4.45562 17.0016 5.942L19.4954 8.34349L22.0274 5.90561C22.7516 5.18274 23.611 4.6104 24.5562 4.2214C25.5014 3.8324 26.5139 3.6344 27.5356 3.63874ZM27.5356 0.00011552C24.4904 0.00011552 21.641 1.17357 19.4954 3.29853C18.4379 2.24614 17.184 1.41315 15.8054 0.847189C14.4267 0.281223 12.9504 -0.0066197 11.4608 0.00011552C9.95507 -0.00396024 8.46357 0.291939 7.0728 0.870647C5.68203 1.44935 4.41967 2.29935 3.35897 3.3713C1.19341 5.53993 0 8.429 0 11.5018C0 14.5746 1.19341 17.4583 3.35897 19.6305C4.42064 20.7015 5.68347 21.5508 7.07443 22.1291C8.46539 22.7075 9.95686 23.0034 11.4626 22.9999C12.9526 23.0066 14.4294 22.7186 15.8084 22.1523C17.1873 21.586 18.4415 20.7526 19.4991 19.6996C20.5566 20.7526 21.8108 21.586 23.1898 22.1523C24.5687 22.7186 26.0455 23.0066 27.5356 22.9999C29.042 23.0042 30.5342 22.7083 31.9257 22.1292C33.3171 21.5502 34.58 20.6996 35.641 19.6269C36.7101 18.5634 37.5577 17.2971 38.1343 15.9019C38.711 14.5067 39.0052 13.0104 38.9999 11.5C39.0019 9.98931 38.7062 8.49312 38.1298 7.09747C37.5533 5.70183 36.7075 4.43426 35.641 3.36766C34.5789 2.29674 33.3157 1.44771 31.9245 0.869672C30.5332 0.291639 29.0414 -0.00391271 27.5356 0.00011552ZM11.4608 10.0063C11.8688 10.0063 12.2334 10.1664 12.5707 10.4994L13.6045 11.4964L12.5109 12.5497C12.3718 12.6839 12.2075 12.7889 12.0275 12.8585C11.8475 12.9282 11.6554 12.9611 11.4626 12.9555C11.0724 12.9639 10.6946 12.8182 10.4106 12.5497C10.2713 12.4128 10.161 12.2491 10.0862 12.0684C10.0114 11.8878 9.97371 11.6938 9.97534 11.4982C9.97534 11.0961 10.1277 10.7304 10.4161 10.4412C10.5523 10.3022 10.715 10.1921 10.8944 10.1174C11.0739 10.0427 11.2665 10.005 11.4608 10.0063ZM11.4608 8.18703C10.5793 8.18703 9.75225 8.53088 9.13015 9.15672C8.82136 9.4627 8.5765 9.82738 8.40989 10.2294C8.24328 10.6315 8.15827 11.0628 8.15982 11.4982C8.15982 12.3787 8.50261 13.2102 9.12652 13.836C9.75044 14.4618 10.6047 14.7748 11.4608 14.7748C11.8918 14.7804 12.3196 14.7003 12.7196 14.5392C13.1197 14.3781 13.4839 14.1391 13.7914 13.836L16.2199 11.4982L13.824 9.18765C13.5166 8.87111 13.1491 8.6195 12.7432 8.44765C12.3374 8.2758 11.9013 8.18719 11.4608 8.18703ZM27.5356 10.0373C27.7273 10.0311 27.9184 10.0631 28.0977 10.1315C28.277 10.1999 28.441 10.3033 28.5802 10.4357C28.8668 10.725 29.0192 11.0888 29.0192 11.4945C29.0192 11.9002 28.8686 12.2623 28.5784 12.5516C28.4416 12.6858 28.2797 12.7916 28.1019 12.8627C27.9242 12.9339 27.7342 12.9692 27.5428 12.9664C27.3341 12.9663 27.1275 12.9243 26.9353 12.8427C26.7431 12.7612 26.5691 12.6417 26.4238 12.4915L25.3881 11.4945L26.4818 10.443C26.6215 10.3082 26.7867 10.2028 26.9677 10.1331C27.1487 10.0634 27.3418 10.0309 27.5356 10.0373ZM27.5356 8.21796C26.6795 8.21796 25.8252 8.53088 25.2013 9.15672L22.771 11.4945L25.1687 13.8051C25.4813 14.1173 25.8522 14.3646 26.2602 14.5329C26.6682 14.7011 27.1053 14.787 27.5464 14.7857C27.9784 14.7888 28.4066 14.7059 28.8064 14.5419C29.2061 14.3778 29.5695 14.1358 29.8753 13.8298C30.1812 13.5239 30.4234 13.1601 30.5881 12.7595C30.7528 12.359 30.8366 11.9296 30.8347 11.4964C30.8369 11.0614 30.7528 10.6303 30.5871 10.2282C30.4214 9.82622 30.1776 9.46134 29.8698 9.1549C29.2454 8.54595 28.4064 8.20918 27.5356 8.21796Z" fill="#525252"/>
</svg>
