<svg width="30" height="29" viewBox="0 0 30 29" fill="none" xmlns="http://www.w3.org/2000/svg">
<path d="M14.9974 0C13.6716 0 12.4001 0.572857 11.4625 1.59255C10.525 2.61224 9.99833 3.99524 9.99833 5.4373C9.99833 6.87936 10.525 8.26236 11.4625 9.28206C12.4001 10.3017 13.6716 10.8746 14.9974 10.8746C16.3233 10.8746 17.5948 10.3017 18.5324 9.28206C19.4699 8.26236 19.9966 6.87936 19.9966 5.4373C19.9966 3.99524 19.4699 2.61224 18.5324 1.59255C17.5948 0.572857 16.3233 0 14.9974 0ZM6.7539 14.4922C6.69725 14.787 6.66892 15.0915 6.66892 15.4057V21.7492C6.66783 23.065 6.93074 24.3653 7.43929 25.5592C7.94785 26.7531 8.68981 27.812 9.6134 28.6618L9.32845 28.7525C8.48288 28.9992 7.60092 29.0623 6.73293 28.9382C5.86493 28.8141 5.02792 28.5052 4.26968 28.0293C3.51145 27.5533 2.84684 26.9195 2.31383 26.1642C1.78082 25.4088 1.38984 24.5466 1.16323 23.6269L0.0850837 19.2499C0.000166247 18.905 -0.0214622 18.5453 0.0214332 18.1913C0.0643287 17.8373 0.170908 17.496 0.335085 17.1869C0.499263 16.8777 0.717823 16.6067 0.978285 16.3894C1.23875 16.1721 1.53601 16.0128 1.8531 15.9204L6.7539 14.4922ZM20.3882 28.6618C21.3117 27.812 22.0537 26.7531 22.5623 25.5592C23.0708 24.3653 23.3337 23.065 23.3326 21.7492V15.4057C23.3315 15.0915 23.3037 14.787 23.2493 14.4922L28.1484 15.9204C28.7885 16.1073 29.3342 16.563 29.6654 17.1874C29.9967 17.8117 30.0864 18.5536 29.9148 19.2499L28.8367 23.6269C28.6035 24.5727 28.1967 25.4573 27.6407 26.2274C27.0846 26.9975 26.3909 27.6371 25.6014 28.1076C24.8119 28.5781 23.9429 28.8698 23.0469 28.965C22.1509 29.0603 21.2465 28.9572 20.3882 28.6618ZM25.8289 3.62487C24.724 3.62487 23.6644 4.10225 22.8831 4.95199C22.1018 5.80174 21.6629 6.95424 21.6629 8.15595C21.6629 9.35767 22.1018 10.5102 22.8831 11.3599C23.6644 12.2097 24.724 12.687 25.8289 12.687C26.9337 12.687 27.9933 12.2097 28.7746 11.3599C29.5559 10.5102 29.9948 9.35767 29.9948 8.15595C29.9948 6.95424 29.5559 5.80174 28.7746 4.95199C27.9933 4.10225 26.9337 3.62487 25.8289 3.62487ZM4.16603 3.62487C3.06115 3.62487 2.00153 4.10225 1.22027 4.95199C0.439008 5.80174 9.87267e-05 6.95424 9.87267e-05 8.15595C9.87267e-05 9.35767 0.439008 10.5102 1.22027 11.3599C2.00153 12.2097 3.06115 12.687 4.16603 12.687C5.2709 12.687 6.33052 12.2097 7.11178 11.3599C7.89305 10.5102 8.33196 9.35767 8.33196 8.15595C8.33196 6.95424 7.89305 5.80174 7.11178 4.95199C6.33052 4.10225 5.2709 3.62487 4.16603 3.62487ZM10.8315 12.687C10.1686 12.687 9.53282 12.9735 9.06406 13.4833C8.5953 13.9932 8.33196 14.6847 8.33196 15.4057V21.7492C8.33196 23.672 9.03421 25.516 10.2842 26.8755C11.5343 28.2351 13.2296 28.9989 14.9974 28.9989C16.7652 28.9989 18.4606 28.2351 19.7107 26.8755C20.9607 25.516 21.6629 23.672 21.6629 21.7492V15.4057C21.6629 14.6847 21.3996 13.9932 20.9308 13.4833C20.4621 12.9735 19.8263 12.687 19.1634 12.687H10.8315Z" fill="#525252"/>
</svg>
