<svg width="22" height="24" viewBox="0 0 22 24" fill="none" xmlns="http://www.w3.org/2000/svg">
<path fill-rule="evenodd" clip-rule="evenodd" d="M6.11111 5.33333C6.11111 3.91885 6.62619 2.56229 7.54303 1.5621C8.45988 0.561903 9.70339 0 11 0C12.2966 0 13.5401 0.561903 14.457 1.5621C15.3738 2.56229 15.8889 3.91885 15.8889 5.33333C15.8889 6.74782 15.3738 8.10438 14.457 9.10457C13.5401 10.1048 12.2966 10.6667 11 10.6667C9.70339 10.6667 8.45988 10.1048 7.54303 9.10457C6.62619 8.10438 6.11111 6.74782 6.11111 5.33333ZM6.11111 13.3333C4.49034 13.3333 2.93596 14.0357 1.7899 15.286C0.643847 16.5362 0 18.2319 0 20C0 21.0609 0.386309 22.0783 1.07394 22.8284C1.76158 23.5786 2.69421 24 3.66667 24H18.3333C19.3058 24 20.2384 23.5786 20.9261 22.8284C21.6137 22.0783 22 21.0609 22 20C22 18.2319 21.3562 16.5362 20.2101 15.286C19.064 14.0357 17.5097 13.3333 15.8889 13.3333H6.11111Z" fill="#525252"/>
</svg>
