<svg width="51" height="51" viewBox="0 0 51 51" fill="none" xmlns="http://www.w3.org/2000/svg">
<path d="M34.2762 32.1512L38.25 6.375H29.75V4.25H21.25V6.375H10.625C8.2875 6.375 6.375 8.2875 6.375 10.625V19.125C6.375 21.4625 8.2875 23.375 10.625 23.375H15.3638L16.7238 32.1512C14.3225 34.1062 12.75 37.0387 12.75 40.375V42.5C12.75 44.8375 14.6625 46.75 17 46.75H34C36.3375 46.75 38.25 44.8375 38.25 42.5V40.375C38.25 37.0387 36.6775 34.1062 34.2762 32.1512ZM10.625 19.125V10.625H13.4088L14.7262 19.125H10.625ZM25.5 40.375C24.3312 40.375 23.375 39.4187 23.375 38.25C23.375 37.0812 24.3312 36.125 25.5 36.125C26.6688 36.125 27.625 37.0812 27.625 38.25C27.625 39.4187 26.6688 40.375 25.5 40.375ZM30.3662 29.75H20.655L17.7013 10.625H33.2987L30.3662 29.75Z" fill="#9494A9"/>
</svg>
