<svg width="58" height="58" viewBox="0 0 58 58" fill="none" xmlns="http://www.w3.org/2000/svg">
<path d="M30.8123 9.52182C33.2289 7.78182 36.0323 6.91182 39.1981 6.91182C40.9381 6.91182 42.8473 7.37099 44.9256 8.33765C47.0039 9.28015 48.6473 10.3918 49.8556 11.6727C52.3448 14.766 53.3839 18.3668 53.0214 22.4752C52.6348 26.5835 51.2814 29.7977 48.9373 32.0693L30.5948 50.4118C30.1356 50.871 29.5556 51.0885 28.8789 51.0885C28.2023 51.0885 27.6464 50.871 27.1873 50.4118C26.9638 50.1918 26.7884 49.9279 26.6719 49.6368C26.5555 49.3457 26.5005 49.0336 26.5106 48.7202C26.5106 48.0435 26.7281 47.4635 27.1873 47.0043L38.2798 35.9118C38.8839 35.3802 38.8839 34.8243 38.2798 34.2202C37.6756 33.616 37.1198 33.616 36.5881 34.2202L25.4956 45.3127C25.2719 45.5379 25.004 45.7144 24.7086 45.8309C24.4133 45.9473 24.097 46.0013 23.7798 45.9893C23.1031 45.9893 22.5473 45.7718 22.0881 45.3127C21.8647 45.0927 21.6892 44.8288 21.5727 44.5376C21.4563 44.2465 21.4014 43.9344 21.4114 43.621C21.4114 42.9443 21.6289 42.3643 22.0881 41.9052L33.1806 30.8127C33.8331 30.2085 33.8331 29.6043 33.1806 29.0002C32.6248 28.396 32.0931 28.396 31.4889 29.0002L20.3964 40.2135C20.1702 40.4353 19.9018 40.6095 19.6071 40.7257C19.3124 40.8419 18.9973 40.8979 18.6806 40.8902C18.0039 40.8902 17.4239 40.6727 16.9164 40.2135C16.4331 39.7543 16.1914 39.1985 16.1914 38.5218C16.1914 37.8451 16.4573 37.241 16.9889 36.7093L28.1056 25.5927C28.7098 24.9885 28.7098 24.4327 28.1056 23.901C27.5014 23.3693 26.9214 23.3693 26.3898 23.901L15.1764 35.0418C14.6448 35.5252 14.0889 35.791 13.4848 35.791C12.8081 35.791 12.2281 35.5493 11.7931 35.0418C11.3339 34.5585 11.0923 33.9785 11.0923 33.3018C11.0923 32.6252 11.3339 32.0693 11.7931 31.6102C19.1881 24.1668 23.7556 19.6718 25.4956 18.0043L34.0989 26.511C35.0414 27.4052 36.1289 27.8643 37.4581 27.8643C39.1498 27.8643 40.4789 27.1877 41.4698 25.8343C42.1464 24.8435 42.3881 23.756 42.1948 22.5477C42.0014 21.3393 41.4939 20.3243 40.6723 19.4785L30.8123 9.52182ZM35.7906 24.8193L25.4956 14.5002L8.3856 31.6102C6.3556 29.556 5.1956 26.4143 4.92977 22.1368C4.66394 17.8835 5.82394 14.186 8.3856 11.0927C11.2614 8.24099 14.6931 6.79099 18.6806 6.79099C22.6923 6.79099 26.0998 8.24099 28.8789 11.0927L39.1981 21.4118C39.6573 21.871 39.8748 22.4268 39.8748 23.1035C39.8748 23.7802 39.6573 24.3602 39.1981 24.8193C38.7389 25.2543 38.1831 25.496 37.4581 25.496C36.8056 25.496 36.2498 25.2543 35.7906 24.8193Z" fill="#A09CAB"/>
</svg>
