<svg width="27" height="27" viewBox="0 0 27 27" fill="none" xmlns="http://www.w3.org/2000/svg">
<path d="M3 15.75H8.0625L9.75 9L14.25 22.5L16.5 12.375L18.1875 15.75H23.25" stroke="url(#paint0_linear_66_6905)" stroke-width="2" stroke-linecap="round" stroke-linejoin="round"/>
<g clip-path="url(#clip0_66_6905)">
<path d="M26.4166 5.05861L23.4686 3.62011C23.4336 3.60261 23.4156 3.56711 23.3976 3.53161L21.9416 0.583611C21.6926 0.068611 21.0536 -0.144889 20.5381 0.103611C20.3296 0.206141 20.1609 0.374958 20.0586 0.583611L18.6026 3.53161C18.5833 3.56433 18.5594 3.59413 18.5316 3.62011L15.5836 5.07661C15.0686 5.32511 14.8551 5.96461 15.1036 6.47961C15.2061 6.68834 15.3749 6.85717 15.5836 6.95961L18.5316 8.39761C18.5666 8.41561 18.5846 8.45111 18.6026 8.46861L20.0766 11.4166C20.3251 11.9316 20.9646 12.1451 21.4796 11.8966C21.6882 11.7941 21.8568 11.6253 21.9591 11.4166L23.3976 8.46861C23.4156 8.43361 23.4511 8.39761 23.4686 8.39761L26.4166 6.94161C26.9316 6.69261 27.1451 6.05361 26.8966 5.53861C26.8076 5.32511 26.6301 5.16561 26.4166 5.05861ZM24.2326 5.27211L22.8651 6.46211C22.5986 6.71061 22.4031 7.03011 22.3321 7.38561L21.9771 9.16111C21.9591 9.23261 21.8881 9.28611 21.8171 9.26811C21.7816 9.26811 21.7636 9.25011 21.7461 9.21461L20.5561 7.84711C20.3076 7.58061 19.9876 7.38561 19.6326 7.31411L17.8566 6.95911C17.7856 6.94161 17.7321 6.87011 17.7501 6.79911C17.7501 6.76411 17.7676 6.74611 17.8031 6.72811L19.1706 5.53811C19.4371 5.28961 19.6326 4.97011 19.7036 4.61461L20.0586 2.83911C20.0766 2.76761 20.1476 2.71411 20.2186 2.73211C20.2453 2.73656 20.27 2.74893 20.2896 2.76761L21.4796 4.13511C21.7281 4.40161 22.0481 4.59711 22.4031 4.66811L24.1791 5.02311C24.2501 5.04111 24.3036 5.11211 24.2856 5.18311C24.2761 5.21692 24.2578 5.24761 24.2326 5.27211Z" fill="url(#paint1_linear_66_6905)"/>
</g>
<defs>
<linearGradient id="paint0_linear_66_6905" x1="13.125" y1="9" x2="13.125" y2="22.5" gradientUnits="userSpaceOnUse">
<stop stop-color="#6E6095"/>
<stop offset="1" stop-color="#7951E5"/>
</linearGradient>
<linearGradient id="paint1_linear_66_6905" x1="21.0001" y1="0" x2="21.0001" y2="12.0002" gradientUnits="userSpaceOnUse">
<stop stop-color="#6E6093"/>
<stop offset="1" stop-color="#7951E8"/>
</linearGradient>
<clipPath id="clip0_66_6905">
<rect width="12" height="12" fill="white" transform="translate(15)"/>
</clipPath>
</defs>
</svg>
