<svg width="40" height="41" viewBox="0 0 40 41" fill="none" xmlns="http://www.w3.org/2000/svg">
<path d="M20 41C31.045 41 40 31.8211 40 20.5H26.6667C26.6667 22.3123 25.9643 24.0504 24.714 25.3319C23.4638 26.6134 21.7681 27.3333 20 27.3333C18.2319 27.3333 16.5362 26.6134 15.286 25.3319C14.0357 24.0504 13.3333 22.3123 13.3333 20.5H0C0 31.8211 8.955 41 20 41ZM13.3333 6.83333C13.3333 8.64565 12.631 10.3837 11.3807 11.6652C10.1305 12.9467 8.43478 13.6667 6.66667 13.6667C4.89856 13.6667 3.20286 12.9467 1.95262 11.6652C0.702379 10.3837 0 8.64565 0 6.83333C0 5.02102 0.702379 3.28294 1.95262 2.00144C3.20286 0.719939 4.89856 0 6.66667 0C8.43478 0 10.1305 0.719939 11.3807 2.00144C12.631 3.28294 13.3333 5.02102 13.3333 6.83333ZM20 0H40V13.6667H20V0Z" fill="#A09CAB"/>
</svg>
